<svg xmlns="http://www.w3.org/2000/svg" xmlns:xlink="http://www.w3.org/1999/xlink" viewBox="0 0 101.51 101.64"><defs><style>.cls-1{fill:none;}.cls-2{clip-path:url(#clip-path);}.cls-3{fill:#f4f0d3;}.cls-4{fill:#e8e4c8;}.cls-5{fill:#efc75e;}.cls-6{fill:#e3bd59;}.cls-7{fill:#e2574c;}.cls-8{fill:#fff;}</style><clipPath id="clip-path" transform="translate(0 -0.09)"><rect class="cls-1" width="101.75" height="102"/></clipPath></defs><title>Datový zdroj 3</title><g id="Vrstva_2" data-name="Vrstva 2"><g id="Vrstva_1-2" data-name="Vrstva 1"><g class="cls-2"><path class="cls-3" d="M79.36,90.87c4.36,1.9,16.43,7.38,20.71,9.12.48.24,1.59.16,1.43-.87-1-10.32-6.74-69.43-7.78-79.91-.16-1.51-.63-1.75-1.75-2.14-3.41-1.27-11.66-4.21-15.08-5.4a3.7,3.7,0,0,0-3.17,0c-5.32,1.51-22.14,6.67-22.14,6.67S34,13,28.57,11.51a3.72,3.72,0,0,0-3.17.08C21.91,12.7,13.81,15.72,10.32,17a2.27,2.27,0,0,0-1.75,2.14C7.46,29.37,1.12,88.72,0,99.12c-.08,1.19,1,1.11,1.9.79C6.67,98,18.73,92.77,23,91a3.4,3.4,0,0,1,3.17,0c4.84,2,19,8.41,23.73,10.32a3.45,3.45,0,0,0,3.17,0c4.68-2,18.41-8.33,23-10.4a3.87,3.87,0,0,1,3.25-.08Zm0,0" transform="translate(0 -0.09)"/><path class="cls-4" d="M27.54,11.28a4.39,4.39,0,0,0-2.14.32C21.91,12.7,13.81,15.72,10.32,17a2.26,2.26,0,0,0-1.75,2.14C7.46,29.37,1.12,88.72,0,99.12c-.08,1.19,1,1.11,1.9.79C6.67,98,18.73,92.77,23,91a3.46,3.46,0,0,1,2.06-.32l2.46-79.43Zm47.34,0a7.33,7.33,0,0,0-1,.32c-5.32,1.59-21.5,6.51-22.22,6.74v83.32a4.24,4.24,0,0,0,1.59-.4c4.68-2,18.41-8.33,23-10.4a4.54,4.54,0,0,1,1.11-.32L74.88,11.28Zm0,0" transform="translate(0 -0.09)"/></g><path class="cls-5" d="M37.06,95.71,50.95,81.82,65.07,95.94c2.94-1.35,5.79-2.7,8.09-3.73L22.46,41.59,47.06,17c-2.54-.79-5.87-1.75-9-2.7L16.59,35.72,7.78,26.91c-.32,3-.71,6.67-1.11,10.71L45.08,76,29,92.14c2.22,1,5.16,2.22,8.09,3.57Zm0,0" transform="translate(0 -0.09)"/><path class="cls-6" d="M26.75,37.3l.4-12.14L16.59,35.64,7.78,26.91c-.32,3-.71,6.67-1.11,10.71L26.19,57.14l.32-11.51-4-4ZM51.63,82.53,65,95.94c2.94-1.35,5.79-2.7,8.09-3.73l-21.5-21.5Zm0,0" transform="translate(0 -0.09)"/><path class="cls-7" d="M63.49.09a23,23,0,0,1,23,23.09c0,.24-.08,6.19-2.06,10.39C79.75,44.45,68.49,56,64.76,59.68c-1,.87-1.35,1-2.54-.08-3.81-3.73-14.92-15.08-19.6-25.87-1.67-3.17-2.14-10-2.14-10.55A23,23,0,0,1,63.49.09Zm0,0" transform="translate(0 -0.09)"/><path class="cls-8" d="M63.49,11.2a11.9,11.9,0,1,0,11.9,11.9,11.89,11.89,0,0,0-11.9-11.9Zm0,19a7.14,7.14,0,1,1,7.14-7.14,7.11,7.11,0,0,1-7.14,7.14Zm0,0" transform="translate(0 -0.09)"/></g></g></svg>