<svg xmlns="http://www.w3.org/2000/svg" xmlns:xlink="http://www.w3.org/1999/xlink" viewBox="0 0 158.34 60.69"><defs><style>.cls-1{fill:none;}.cls-2{fill:#9b9b9b;}.cls-3{fill:#d3d8e9;}.cls-4{fill:url(#Nepojmenovaný_přechod_193);}.cls-5{fill:#e1e6f3;}.cls-6{fill:#4c4756;}.cls-7{clip-path:url(#clip-path);}.cls-8{fill:#c4c8dc;}.cls-9{fill:#d44c52;}.cls-10{fill:#d10514;}.cls-11{fill:#91a5aa;}.cls-12{fill:#c1d2d6;}.cls-13{fill:#a3bcc1;}.cls-14{clip-path:url(#clip-path-2);}.cls-15{fill:#7c999b;}.cls-16{fill:#0d4972;}.cls-17{fill:#00233f;}.cls-18{fill:#7296aa;}.cls-19{fill:#648593;}.cls-20{fill:#db402c;}.cls-21{fill:#c1291e;}.cls-22{fill:#ef664b;}.cls-23{fill:#2284af;}.cls-24{fill:#d0e6ea;}</style><linearGradient id="Nepojmenovaný_přechod_193" x1="94.18" y1="44.76" x2="94.18" gradientUnits="userSpaceOnUse"><stop offset="0" stop-color="#830b0b"/><stop offset="1" stop-color="#c60000"/></linearGradient><clipPath id="clip-path" transform="translate(-4.04)"><rect class="cls-1" x="25.97" width="136.4" height="51.68"/></clipPath><clipPath id="clip-path-2" transform="translate(-4.04)"><rect class="cls-1" x="4.68" y="9.22" width="57.09" height="57.24" transform="translate(-6.26 6.59) rotate(-10.36)"/></clipPath></defs><title>Datový zdroj 4</title><g id="Vrstva_2" data-name="Vrstva 2"><g id="Vrstva_1-2" data-name="Vrstva 1"><polygon class="cls-2" points="28.47 0.88 37.88 12.64 34.2 15.58 24.8 3.82 28.47 0.88 28.47 0.88"/><path class="cls-3" d="M81,14.62a2.16,2.16,0,0,1-1.58-3.25l1.83-3a7.1,7.1,0,0,1,6-3.53H98.88a7.06,7.06,0,0,1,5.65,2.82l8.27,11-31.8-4Z" transform="translate(-4.04)"/><path class="cls-3" d="M112.3,3.15c-.2-.16-.42-.33-.66-.49H101.24l16.46,18.52,9.41-4.7s-11-10.22-14.8-13.33Z" transform="translate(-4.04)"/><path class="cls-4" d="M81,14.62a2.16,2.16,0,0,1-1.58-3.25l1.83-3a7.1,7.1,0,0,1,6-3.53H98.88a7.06,7.06,0,0,1,5.65,2.82l8.27,11-31.8-4Zm55.48-.5h-9.65a7.06,7.06,0,0,0-3.91,1.19l-3.28,2.19a7,7,0,0,1-1.25.64L109.71,6.58a1.12,1.12,0,0,1,.89-1.79h3.69c-.73-.63-1.37-1.18-1.88-1.6C110.52,1.65,106.92,0,98.74,0H87.14A32.84,32.84,0,0,0,72.46,3.47L55.95,11.72H35.43a7.06,7.06,0,0,0-7.06,7.06V40l16.45,4.71H160V37.69a23.53,23.53,0,0,0-23.5-23.57Z" transform="translate(-4.04)"/><path class="cls-2" d="M160,47.16H54.27a2.4,2.4,0,0,1-.07-4.8H160a2.4,2.4,0,0,1,.07,4.8Z" transform="translate(-4.04)"/><path class="cls-5" d="M136.51,25.87a11.76,11.76,0,1,1-11.76,11.76,11.76,11.76,0,0,1,11.76-11.76Z" transform="translate(-4.04)"/><path class="cls-6" d="M136.51,28.22a9.41,9.41,0,1,0,9.41,9.41,9.42,9.42,0,0,0-9.41-9.41Zm0,23.52a14.11,14.11,0,1,1,14.11-14.11,14.13,14.13,0,0,1-14.11,14.11Z" transform="translate(-4.04)"/><g class="cls-7"><path class="cls-8" d="M136.51,32.93a4.7,4.7,0,1,1-4.7,4.7,4.7,4.7,0,0,1,4.7-4.7Z" transform="translate(-4.04)"/><path class="cls-9" d="M47.14,47a2.33,2.33,0,0,1-.57-.07l-18.81-4.7A2.35,2.35,0,0,1,28.9,37.7l18.81,4.7A2.35,2.35,0,0,1,47.14,47Z" transform="translate(-4.04)"/></g><path class="cls-9" d="M28.37,25.71l3.42,3.42a4.7,4.7,0,0,1,1.38,3.33v10l-4.8-2.4V25.71Z" transform="translate(-4.04)"/><path class="cls-10" d="M104.39,37.56H63.68a2.4,2.4,0,0,1-.07-4.8h40.79a7,7,0,0,0,5-2.11l3.5-3.56a2.39,2.39,0,0,1,3.43,0,2.43,2.43,0,0,1,0,3.35l-3.56,3.63a11.57,11.57,0,0,1-8.32,3.51Z" transform="translate(-4.04)"/><path class="cls-5" d="M51.84,25.87A11.76,11.76,0,1,1,40.08,37.63,11.76,11.76,0,0,1,51.84,25.87Z" transform="translate(-4.04)"/><path class="cls-6" d="M51.84,28.22a9.41,9.41,0,1,0,9.41,9.41,9.42,9.42,0,0,0-9.41-9.41Zm0,23.52A14.11,14.11,0,1,1,66,37.63,14.13,14.13,0,0,1,51.84,51.74Z" transform="translate(-4.04)"/><path class="cls-8" d="M51.84,32.93a4.7,4.7,0,1,1-4.7,4.7,4.7,4.7,0,0,1,4.7-4.7Z" transform="translate(-4.04)"/><path class="cls-10" d="M30,14.29l90.28,9.2a6.88,6.88,0,0,0,3.68-.62c5.49-2.64,24-9.37,35.89,12.56a23.69,23.69,0,0,0-23.36-21.31h-9.59a7.06,7.06,0,0,0-4,1.22l-3.31,2.25a7,7,0,0,1-1.26.66s-.85,1-5.58.4L94,16.22c-15.75-2-35.79-4.5-38-4.5H35.38A7,7,0,0,0,30,14.29Z" transform="translate(-4.04)"/><path class="cls-10" d="M37.78,6.93H31.94a4.7,4.7,0,0,1-4.46-3.22l-.66-2A1.32,1.32,0,0,1,28.07,0h9.67a2.35,2.35,0,0,1,2.35,2.35V4.62a2.31,2.31,0,0,1-2.31,2.31Z" transform="translate(-4.04)"/><path class="cls-11" d="M33.83,45.59l-5.58-3.85-.86-2.57L14.9,30.53,20,23.17l12.5,8.63,2.71-.11,5.58,3.85.88,2.67,14.51,10,.62-.89,1.53,4.11,1.28-1L61,53.7l1.65-1.08,3.82,8.08L57.52,60l.43-1.93-3.53-.13.5-1.55-4.38,0,.62-.89-14.51-10Zm0,0" transform="translate(-4.04)"/><path class="cls-12" d="M32.88,45,27.3,41.13l-.86-2.57-12.5-8.63L19,22.56l12.5,8.63,2.71-.11,5.58,3.85,1,2.55,14.51,10,1.43-.16L57.08,51l2.44-.54.91,2.86,2.12-.68,2.92,7.46-8-.1-.4-2.17-2.71.11L54,55.46l-3.53.94L50,54.92l-14.41-10Zm.06,0" transform="translate(-4.04)"/><polyline class="cls-13" points="61.43 60.09 53.42 59.99 53.02 57.82 50.31 57.93 49.96 55.46 46.43 56.4 45.96 54.92 31.55 44.88 28.84 44.99 23.26 41.13 22.4 38.56 9.9 29.93 12.52 26.14"/><g class="cls-14"><path class="cls-15" d="M27.36,41.12l-.88-2.67L15,30.52a28.35,28.35,0,0,0,2.78-3.43A28.44,28.44,0,0,0,20,23.26l11.59,7.92,2.81-.12,3.24,2.24a16.79,16.79,0,0,1-2.58,5.64,18,18,0,0,1-4.36,4.4Zm0,0" transform="translate(-4.04)"/><path class="cls-16" d="M9.63,21.46C15.41,13.09,22.55,7.88,28.8,12.2s9,16.38,3.26,24.75-18.17,10-24.3,5.71S3.85,29.83,9.63,21.46Zm5.24,3.62c2.62-3.79,4-7.55,2.88-8.23s-4.06,1.81-6.68,5.61S7.1,30,8.2,30.69s4-1.8,6.68-5.61Zm0,0" transform="translate(-4.04)"/><path class="cls-17" d="M9.63,21.46l1.43.91c-2.62,3.79-4,7.55-2.88,8.23s4.05-1.81,6.68-5.61L32,36.86c-5.78,8.37-18.17,10-24.3,5.71S3.85,29.83,9.63,21.46Zm0,0" transform="translate(-4.04)"/></g><path class="cls-18" d="M13.33,39.59c4.35,3,11.16.79,15.17-5s3.77-13-.68-16S21.24,21,17.25,26.89,9,36.49,13.33,39.59Zm0,0" transform="translate(-4.04)"/><path class="cls-19" d="M13.78,39.9c-3.23-2.72.83-6.68,4.68-12.26s6.22-10.79,9.81-8.72c3.9,3.19,4.08,10.07.23,15.65S18.24,42.4,13.78,39.9Zm0,0" transform="translate(-4.04)"/><path class="cls-17" d="M26.64,16.4c.45.31,1.59.68,1.9.24s-.28-2.09-.73-2.4a.93.93,0,0,0-1.32.24,1.76,1.76,0,0,0,.16,1.92Zm0,0" transform="translate(-4.04)"/><path class="cls-20" d="M26.34,15.28a1,1,0,1,0,.77-1.12,1,1,0,0,0-.77,1.12Zm0,0" transform="translate(-4.04)"/><path class="cls-21" d="M26.5,14.57a.95.95,0,0,0,1.56,1.08" transform="translate(-4.04)"/><path class="cls-21" d="M26.5,14.57a.95.95,0,0,0,1.56,1.08" transform="translate(-4.04)"/><g class="cls-14"><path class="cls-22" d="M26.8,14.61a.38.38,0,1,0,.31-.45.38.38,0,0,0-.31.45Zm0,0" transform="translate(-4.04)"/><path class="cls-23" d="M10.07,21.76c-5.7,8.26-8,16.67-2.11,21-.11-.08-.21-.06-.22-.15C1.6,38.33,3.85,29.83,9.61,21.36c5.8-8.27,12.94-13.48,19.19-9.16,0,.09.11.08.22.15-6.18-3.94-13.15,1.14-18.95,9.41Zm0,0" transform="translate(-4.04)"/></g><path class="cls-23" d="M15.32,25.39C12.7,29.18,9.66,31.78,8.64,31c-.11-.08-.13-.17-.24-.25,1.2.17,4-2.19,6.36-5.74s3.71-6.92,3.12-8c.09,0,.21.06.32.14,1.1.68-.26,4.43-2.88,8.23Zm0,0" transform="translate(-4.04)"/><path class="cls-24" d="M63.52,59.18a.41.41,0,1,0,.46-.67L39.21,41.39a.41.41,0,0,0-.46.67Zm0,0" transform="translate(-4.04)"/><path class="cls-24" d="M36.14,40.1a.38.38,0,1,0,.31-.45.38.38,0,0,0-.31.45Zm0,0" transform="translate(-4.04)"/><path class="cls-24" d="M35,39.33a.38.38,0,1,0,.31-.45.38.38,0,0,0-.31.45Zm0,0" transform="translate(-4.04)"/><path class="cls-24" d="M33.8,38.48a.38.38,0,1,0,.31-.45.38.38,0,0,0-.31.45Zm0,0" transform="translate(-4.04)"/><path class="cls-17" d="M27.11,38.15A.68.68,0,0,0,27.88,37L15.49,28.48a.68.68,0,0,0-.77,1.12Zm0,0" transform="translate(-4.04)"/><path class="cls-17" d="M13.66,42.46c-.15.22,0,.58.25.83s.73.26.87-.06l6.63-9.6c.15-.22,0-.58-.25-.83s-.73-.26-.87.06Zm0,0" transform="translate(-4.04)"/></g></g></svg>