<svg xmlns="http://www.w3.org/2000/svg" xmlns:xlink="http://www.w3.org/1999/xlink" viewBox="0 0 83.17 88.08"><defs><style>.cls-1{fill:none;}.cls-2{fill:#efebde;}.cls-3{fill:#d5d0bb;}.cls-4{clip-path:url(#clip-path);}.cls-5{fill:#26b999;}.cls-6{fill:#fff;}</style><clipPath id="clip-path" transform="translate(0 -0.76)"><rect class="cls-1" width="83.17" height="90.73"/></clipPath></defs><title>Datový zdroj 2</title><g id="Vrstva_2" data-name="Vrstva 2"><g id="Vrstva_1-2" data-name="Vrstva 1"><path class="cls-2" d="M68,22.88l-21.17-21H0V88.84H68Zm0-1" transform="translate(0 -0.76)"/><path class="cls-3" d="M15.12,35.91h37.8A2.26,2.26,0,0,0,54.44,34a2.26,2.26,0,0,0-1.51-1.89H15.12A2.26,2.26,0,0,0,13.61,34a1.51,1.51,0,0,0,1.51,1.5Zm0-.38" transform="translate(0 -0.76)"/><path class="cls-3" d="M15.12,24.57H30.24c.83-1.13,1.51-1.81,1.51-2.65s-.68-1.51-1.51-1.13H15.12c-.83-.38-1.51.3-1.51,1.13a1.52,1.52,0,0,0,1.51,1.51Zm0-1.13" transform="translate(0 -0.76)"/><path class="cls-3" d="M52.92,43.47H15.12c-.83,1.13-1.51,1.81-1.51,2.65s.68,1.51,1.51,1.13h37.8c.83.38,1.51-.3,1.51-1.13a1.52,1.52,0,0,0-1.51-1.51Zm0,1.13" transform="translate(0 -0.76)"/><path class="cls-3" d="M52.92,56.7H15.12a1.51,1.51,0,0,0-1.51,1.51c0,.84.68,1.51,1.51,2.27h37.8c.83-.76,1.51-1.43,1.51-2.27a1.51,1.51,0,0,0-1.51-1.5Zm0,0" transform="translate(0 -0.76)"/><path class="cls-3" d="M52.92,68H15.12c-.83.76-1.51,1.43-1.51,2.27a1.51,1.51,0,0,0,1.51,1.51h37.8a1.51,1.51,0,1,0,0-3Zm0,.76" transform="translate(0 -0.76)"/><g class="cls-4"><path class="cls-3" d="M47.25,1.51V22.68H68.42ZM46.88.76" transform="translate(0 -0.76)"/><path class="cls-5" d="M83.17,70.32A18.14,18.14,0,1,1,65,52.17,18.14,18.14,0,0,1,83.17,70.32Zm0,0" transform="translate(0 -0.76)"/></g><path class="cls-6" d="M75,61.51a1.51,1.51,0,0,0-2.1.38L64.39,74l-6-4.9a1.51,1.51,0,1,0-1.91,2.34l7.24,5.94a1.5,1.5,0,0,0,1,.34l.21,0a1.52,1.52,0,0,0,1-.63l9.39-13.5a1.5,1.5,0,0,0-.38-2.1Zm0,0" transform="translate(0 -0.76)"/></g></g></svg>