<svg xmlns="http://www.w3.org/2000/svg" viewBox="0 0 101.31 81.95"><defs><style>.cls-1{fill:#ba3319;}.cls-2{fill:#9a1e00;}</style></defs><title>Datový zdroj 1</title><g id="Vrstva_2" data-name="Vrstva 2"><g id="Vrstva_1-2" data-name="Vrstva 1"><path class="cls-1" d="M92.29,5.16V31.07H83.53V10.51a1.43,1.43,0,0,0-1.43-1.42H58.36a1.43,1.43,0,0,0-1.42,1.42V31.07H48.19V5.16A5.16,5.16,0,0,1,53.35,0H87.13A5.16,5.16,0,0,1,92.29,5.16Z"/><rect class="cls-2" x="48.19" y="12.23" width="8.75" height="18.84"/><rect class="cls-2" x="83.54" y="12.23" width="8.75" height="18.84"/><polygon class="cls-2" points="40.31 32.01 27.99 40.96 22.33 46.23 7.16 25.34 14.74 18.67 25.14 11.12 25.15 11.13 40.09 31.71 40.31 32.01"/><polygon class="cls-2" points="40.29 32 26.37 42.49 11.22 21.61 25.14 11.12 25.15 11.13 40.29 32"/><path class="cls-1" d="M93.71,19.94H46.16a7.6,7.6,0,0,0-5.43,2.29L20.2,37.63l-3.58,2.69-3.24,2.43A7.59,7.59,0,0,0,11.22,48v24.4a9.5,9.5,0,0,0,9.5,9.5H91.81a9.5,9.5,0,0,0,9-6.44,9.4,9.4,0,0,0,.5-3v-45A7.6,7.6,0,0,0,93.71,19.94Z"/><rect class="cls-2" x="-1.69" y="14.26" width="34.49" height="7.16" rx="1.14" ry="1.14" transform="translate(-7.55 12.7) rotate(-36.38)"/><rect class="cls-1" x="1.12" y="13.34" width="31.37" height="7.16" rx="1.14" ry="1.14" transform="translate(-6.76 13.27) rotate(-36.38)"/></g></g></svg>