<svg xmlns="http://www.w3.org/2000/svg" viewBox="0 0 101.31 124.96"><defs><style>.cls-1{fill:#0ba877;}.cls-2{fill:#087;}.cls-3{fill:#00665a;}</style></defs><title>Datový zdroj 2</title><g id="Vrstva_2" data-name="Vrstva 2"><g id="Vrstva_1-2" data-name="Vrstva 1"><path class="cls-1" d="M92.29,5.16V31.07H83.53V10.51a1.43,1.43,0,0,0-1.43-1.42H58.36a1.43,1.43,0,0,0-1.42,1.42V31.07H48.19V5.16A5.16,5.16,0,0,1,53.35,0H87.13A5.16,5.16,0,0,1,92.29,5.16Z"/><rect class="cls-2" x="48.19" y="12.23" width="8.75" height="18.84"/><rect class="cls-2" x="83.54" y="12.23" width="8.75" height="18.84"/><polygon class="cls-2" points="40.31 32.01 27.99 40.96 22.33 46.23 7.16 25.34 14.74 18.67 25.14 11.12 25.15 11.13 40.09 31.71 40.31 32.01"/><polygon class="cls-2" points="40.29 32 26.37 42.49 11.22 21.61 25.14 11.12 25.15 11.13 40.29 32"/><path class="cls-1" d="M93.71,19.94H46.16a7.6,7.6,0,0,0-5.43,2.29L20.2,37.63l-3.58,2.69-3.24,2.43A7.59,7.59,0,0,0,11.22,48v67.41a9.5,9.5,0,0,0,9.5,9.5H91.81a9.5,9.5,0,0,0,9-6.44,9.4,9.4,0,0,0,.5-3v-88A7.6,7.6,0,0,0,93.71,19.94Z"/><rect class="cls-2" x="18.76" y="71.13" width="78.3" height="7.08" rx="1.13" ry="1.13" transform="translate(69.76 -19.08) rotate(45)"/><path class="cls-3" d="M30.23,52l50.36,50.36a3.55,3.55,0,0,0,5,0L30.23,47A3.55,3.55,0,0,0,30.23,52Z"/><rect class="cls-2" x="18.76" y="71.13" width="78.3" height="7.08" rx="1.13" ry="1.13" transform="translate(151.66 86.51) rotate(135)"/><path class="cls-3" d="M80.59,47,30.23,97.34a3.55,3.55,0,0,0,0,5L85.59,47A3.55,3.55,0,0,0,80.59,47Z"/><rect class="cls-2" x="44.51" y="30.59" width="43.41" height="7.08" rx="1.13" ry="1.13" transform="translate(132.42 68.26) rotate(-180)"/><path class="cls-3" d="M85.95,30.59H46.47c-1.08,0-2,1.59-2,3.54H87.91C87.91,32.18,87,30.59,85.95,30.59Z"/><rect class="cls-2" x="25.26" y="112.11" width="62.65" height="7.08" rx="1.13" ry="1.13" transform="translate(113.17 231.3) rotate(-180)"/><path class="cls-3" d="M85.08,112.11h-57c-1.56,0-2.83,1.59-2.83,3.54H87.91C87.91,113.7,86.64,112.11,85.08,112.11Z"/><rect class="cls-2" x="-1.69" y="14.26" width="34.49" height="7.16" rx="1.14" ry="1.14" transform="translate(-7.55 12.7) rotate(-36.38)"/><rect class="cls-1" x="1.12" y="13.34" width="31.37" height="7.16" rx="1.14" ry="1.14" transform="translate(-6.76 13.27) rotate(-36.38)"/></g></g></svg>