<svg xmlns="http://www.w3.org/2000/svg" viewBox="0 0 81.8 116.76"><defs><style>.cls-1{fill:#2b3b4e;}.cls-2{fill:#4a7693;}.cls-3{fill:#324a5e;}.cls-4{fill:#fff;}</style></defs><title>Datový zdroj 3</title><g id="Vrstva_2" data-name="Vrstva 2"><g id="Vrstva_1-2" data-name="Vrstva 1"><ellipse class="cls-1" cx="40.9" cy="106.46" rx="40.9" ry="10.3"/><path class="cls-2" d="M40.9,66.72C16.53,66.72,2.61,71.79,2,74.55V106.6H2c.87,2.76,14.65,7.83,38.87,7.83s38.29-5.08,38.87-7.83V74.7C79.19,71.79,65.27,66.72,40.9,66.72Z"/><ellipse class="cls-1" cx="40.9" cy="74.55" rx="40.9" ry="10.3"/><path class="cls-2" d="M40.9,34.81C16.53,34.81,2.61,39.89,2,42.64V74.7H2c.87,2.76,14.65,7.83,38.87,7.83s38.29-5.08,38.87-7.83V42.79C79.19,39.89,65.27,34.81,40.9,34.81Z"/><ellipse class="cls-1" cx="40.9" cy="42.5" rx="40.9" ry="10.3"/><path class="cls-2" d="M40.9,2.76C16.53,2.76,2.61,7.83,2,10.59V42.64H2c.87,2.76,14.65,7.83,38.87,7.83s38.29-5.08,38.87-7.83V10.73C79.19,7.83,65.27,2.76,40.9,2.76Z"/><ellipse class="cls-1" cx="40.9" cy="10.3" rx="40.9" ry="10.3"/><path class="cls-2" d="M40.9,17.69c-25.24,0-37.42-5.37-38-7.4C3.48,8.27,15.66,3,40.9,3s37.42,5.37,38,7.4C78.32,12.47,66.14,17.69,40.9,17.69Z"/><ellipse class="cls-3" cx="18.42" cy="9.72" rx="6.53" ry="2.32"/><path class="cls-4" d="M8.41,41.34h0a.69.69,0,0,1-.73-.73V22.48a.69.69,0,0,1,.73-.73h0a.69.69,0,0,1,.73.73V40.61C9.28,41,8.85,41.34,8.41,41.34Z"/><path class="cls-4" d="M8.41,73.82h0a.69.69,0,0,1-.73-.73V55a.69.69,0,0,1,.73-.73h0a.69.69,0,0,1,.73.73V73.1C9.28,73.39,8.85,73.82,8.41,73.82Z"/><path class="cls-4" d="M8.41,106.17h0a.69.69,0,0,1-.73-.73V87.31a.69.69,0,0,1,.73-.73h0a.69.69,0,0,1,.73.73v18.13C9.28,105.88,8.85,106.17,8.41,106.17Z"/></g></g></svg>