<?xml version="1.0" standalone="no"?>
<!DOCTYPE svg PUBLIC "-//W3C//DTD SVG 1.1//EN" "http://www.w3.org/Graphics/SVG/1.1/DTD/svg11.dtd" >
<svg xmlns="http://www.w3.org/2000/svg">
<metadata></metadata>
<defs>
<font id="organicasemibold" horiz-adv-x="1302" >
<font-face units-per-em="2048" ascent="1536" descent="-512" />
<missing-glyph horiz-adv-x="614" />
<glyph horiz-adv-x="0" />
<glyph horiz-adv-x="0" />
<glyph horiz-adv-x="682" />
<glyph unicode="&#xd;" horiz-adv-x="0" />
<glyph unicode=" "  horiz-adv-x="614" />
<glyph unicode="&#x09;" horiz-adv-x="614" />
<glyph unicode="&#xa0;" horiz-adv-x="614" />
<glyph unicode="!" horiz-adv-x="614" d="M174 0v313h266v-313h-266zM174 440v1055h266v-1055h-266z" />
<glyph unicode="&#x22;" horiz-adv-x="903" d="M113 846v588h252v-588h-252zM541 846v588h250v-588h-250z" />
<glyph unicode="#" horiz-adv-x="1542" d="M72 346l67 234h205l78 274h-205l68 236h204l99 344h250l-99 -344h277l98 344h252l-98 -344h202l-67 -236h-203l-78 -274h203l-68 -234h-202l-99 -346h-251l98 346h-277l-98 -346h-250l98 346h-204zM594 580h276l78 274h-276z" />
<glyph unicode="$" horiz-adv-x="1310" d="M92 373l285 55q18 -73 63 -118.5t127 -61.5v375q-54 15 -92 26.5t-87.5 31t-83 40.5t-69.5 52t-57 67.5t-35 86t-14 107.5q0 163 120 277t318 137v242h181v-242q196 -20 312.5 -122t143.5 -263l-284 -57q-18 73 -58.5 117.5t-113.5 62.5v-344q58 -15 96.5 -26.5t92.5 -32 t90 -42t75.5 -54.5t62.5 -72t38.5 -92.5t15.5 -116.5q0 -168 -129 -284t-342 -138v-240h-181v242q-206 20 -329.5 123.5t-145.5 263.5zM418 1040q0 -55 38 -89t111 -60v299q-75 -13 -112 -52t-37 -98zM748 244q88 12 134 51.5t46 101.5q0 64 -46 103.5t-134 70.5v-327z" />
<glyph unicode="%" horiz-adv-x="2043" d="M72 1012q0 190 115.5 316t293.5 126t294 -126t116 -316q0 -189 -116.5 -316t-293.5 -127t-293 127t-116 316zM317 1012q0 -104 46.5 -174t117.5 -70q70 0 117 70.5t47 173.5q0 104 -47 174.5t-117 70.5q-71 0 -117.5 -70t-46.5 -175zM467 0l842 1434h268l-842 -1434h-268 zM1153 422q0 190 116 316t294 126t293.5 -126t115.5 -316q0 -189 -116 -315.5t-293 -126.5t-293.5 126.5t-116.5 315.5zM1399 422q0 -104 46.5 -174t117.5 -70q70 0 116.5 70.5t46.5 173.5q0 105 -46.5 175.5t-116.5 70.5q-71 0 -117.5 -70.5t-46.5 -175.5z" />
<glyph unicode="&#x26;" horiz-adv-x="1484" d="M92 393q0 263 242 385q-123 136 -123 281q0 175 124.5 285t340.5 110q207 0 334 -120t127 -328h-277q0 98 -49 152t-141 54q-88 0 -135.5 -46t-47.5 -109q0 -90 103 -176l436 -353q38 85 41 189h276q-5 -185 -98 -363l193 -155l-158 -217l-199 165q-191 -167 -485 -167 q-122 0 -220.5 34.5t-159 93t-92.5 131.5t-32 154zM369 432q0 -87 62 -148t185 -61q156 0 265 88l-396 326q-54 -32 -85 -87t-31 -118z" />
<glyph unicode="'" horiz-adv-x="477" d="M113 846v588h252v-588h-252z" />
<glyph unicode="(" horiz-adv-x="712" d="M111 717q0 266 85.5 511.5t221.5 409.5h274q-136 -164 -221.5 -409.5t-85.5 -511.5q0 -265 85.5 -512t221.5 -410h-274q-136 163 -221.5 410t-85.5 512z" />
<glyph unicode=")" horiz-adv-x="727" d="M20 -205q136 164 222 410t86 512q0 264 -86 511t-222 410h277q136 -163 221.5 -409.5t85.5 -511.5q0 -266 -85.5 -512.5t-221.5 -409.5h-277z" />
<glyph unicode="*" horiz-adv-x="868" d="M72 956l204 109l-204 109l88 151l194 -123l-6 232h174l-8 -232l197 123l86 -151l-205 -109l205 -109l-86 -151l-197 123l8 -232h-174l6 232l-194 -123z" />
<glyph unicode="+" horiz-adv-x="1095" d="M113 592v250h303v303h266v-303h301v-250h-301v-301h-266v301h-303z" />
<glyph unicode="," horiz-adv-x="522" d="M92 -225l41 563h285l-123 -563h-203z" />
<glyph unicode="-" horiz-adv-x="675" d="M72 414v233h532v-233h-532z" />
<glyph unicode="." horiz-adv-x="522" d="M113 0v338h297v-338h-297z" />
<glyph unicode="/" horiz-adv-x="714" d="M-72 -410l592 2253h266l-591 -2253h-267z" />
<glyph unicode="0" horiz-adv-x="1355" d="M92 717q0 208 75 376.5t209.5 264.5t301.5 96t301.5 -96t209.5 -264.5t75 -376.5t-75 -376.5t-209.5 -264.5t-301.5 -96t-301.5 96t-209.5 264.5t-75 376.5zM383 717q0 -205 83.5 -341t211.5 -136q127 0 211 136t84 341q0 206 -84 342.5t-211 136.5q-128 0 -211.5 -136.5 t-83.5 -342.5z" />
<glyph unicode="1" horiz-adv-x="1091" d="M72 0v250h395v883l-395 -103v250l676 174v-1204h333v-250h-1009z" />
<glyph unicode="2" horiz-adv-x="1267" d="M115 999q15 218 151 336.5t361 118.5q230 0 369 -118t139 -320q0 -128 -65 -239.5t-171 -198.5l-373 -328h629v-250h-1034v250l600 526q123 107 123 232q0 82 -56.5 135t-160.5 53q-99 0 -158.5 -59.5t-62.5 -169.5z" />
<glyph unicode="3" horiz-adv-x="1183" d="M51 434l291 33q3 -109 63.5 -168t163.5 -59q112 0 172 55t60 141q0 99 -66.5 161t-199.5 62h-127v211l284 314h-571v250h919v-250l-303 -330q156 -30 255.5 -144t99.5 -282q0 -203 -144 -325.5t-381 -122.5q-228 0 -364.5 118.5t-151.5 335.5z" />
<glyph unicode="4" horiz-adv-x="1239" d="M10 276v250l709 908l8 -2v2h283v-908h178v-250h-178v-276h-283v276h-717zM315 526h412v529z" />
<glyph unicode="5" horiz-adv-x="1210" d="M92 406l289 34q9 -94 69.5 -147t157.5 -53q103 0 171.5 66.5t68.5 168.5q0 104 -65 171t-165 67q-148 0 -221 -121l-262 33l101 809h792v-250h-571l-39 -316q122 78 264 78q195 0 326 -129.5t131 -341.5q0 -215 -151 -355t-380 -140q-222 0 -358 112.5t-158 313.5z" />
<glyph unicode="6" horiz-adv-x="1198" d="M72 475q0 136 102 311l375 648h321l-284 -494q142 20 265.5 -32.5t199 -167t75.5 -265.5q0 -211 -149.5 -353t-376.5 -142q-229 0 -378.5 140.5t-149.5 354.5zM362 475q0 -102 67.5 -168.5t170.5 -66.5q102 0 169 66.5t67 168.5q0 103 -67.5 170.5t-168.5 67.5 q-103 0 -170.5 -67.5t-67.5 -170.5z" />
<glyph unicode="7" horiz-adv-x="1101" d="M31 1184v250h1020v-217l-564 -1217h-311l563 1184h-708z" />
<glyph unicode="8" horiz-adv-x="1257" d="M92 406q0 109 58 197t165 142q-81 52 -125.5 130t-44.5 172q0 170 139 288.5t345 118.5q205 0 344 -118.5t139 -288.5q0 -94 -45.5 -172t-126.5 -130q107 -55 166 -142.5t59 -196.5q0 -184 -144.5 -305t-391.5 -121t-392 121t-145 305zM375 424q0 -85 69.5 -139 t184.5 -54t183.5 54t68.5 139q0 86 -70.5 142.5t-181.5 56.5q-113 0 -183.5 -56.5t-70.5 -142.5zM428 1026q0 -74 57.5 -125t143.5 -51q85 0 141.5 51t56.5 125q0 75 -56 125.5t-142 50.5t-143.5 -50.5t-57.5 -125.5z" />
<glyph unicode="9" horiz-adv-x="1198" d="M72 958q0 212 149.5 354t378.5 142t377.5 -140.5t148.5 -355.5q0 -136 -102 -311l-375 -647h-321l286 496q-142 -21 -266 30.5t-200 166.5t-76 265zM362 958q0 -103 67.5 -170t170.5 -67q102 0 169 67.5t67 169.5q0 103 -67.5 170.5t-168.5 67.5q-103 0 -170.5 -67.5 t-67.5 -170.5z" />
<glyph unicode=":" horiz-adv-x="522" d="M113 0v338h297v-338h-297zM113 717v338h297v-338h-297z" />
<glyph unicode=";" horiz-adv-x="522" d="M92 -225l41 563h285l-123 -563h-203zM113 717v338h297v-338h-297z" />
<glyph unicode="&#x3c;" horiz-adv-x="1095" d="M113 592v250l870 364v-264l-543 -221l543 -219v-273z" />
<glyph unicode="=" horiz-adv-x="1095" d="M113 342v250h870v-250h-870zM113 844v250h870v-250h-870z" />
<glyph unicode="&#x3e;" horiz-adv-x="1095" d="M113 229v265l542 219l-542 219v274l870 -364v-250z" />
<glyph unicode="?" horiz-adv-x="1105" d="M31 999q15 217 155.5 336t366.5 119q228 0 363 -111.5t135 -289.5q0 -76 -21.5 -137.5t-56 -102t-76 -75.5t-83 -65.5t-75.5 -62.5t-55 -76t-20 -98h-267q0 81 20 147.5t52.5 109.5t71 78t77.5 62.5t71.5 54t52.5 60.5t20 74q0 73 -53 123.5t-156 50.5q-100 0 -164 -60.5 t-67 -168.5zM397 0v307h267v-307h-267z" />
<glyph unicode="@" horiz-adv-x="2056" d="M51 410q0 215 86 409t231.5 333t345.5 220.5t421 81.5q249 0 444 -110t300.5 -301t105.5 -429q0 -129 -39 -241t-104.5 -188.5t-153.5 -120.5t-185 -44q-79 0 -148.5 37.5t-99.5 116.5q-71 -75 -168 -119.5t-200 -44.5q-172 0 -285 117.5t-113 294.5q0 117 43.5 224 t116 183.5t172 122t207.5 45.5q202 0 297 -155l25 137h237l-112 -637q-8 -49 11.5 -80t69.5 -31q83 0 151.5 103.5t68.5 281.5q0 184 -79.5 330.5t-227 231t-336.5 84.5q-177 0 -338.5 -66.5t-279 -180t-186.5 -271t-69 -332.5q0 -137 46.5 -256t129.5 -205t203 -135 t262 -49q268 0 488 139l112 -164q-268 -172 -598 -172q-187 0 -347 64t-270.5 175.5t-172.5 266.5t-62 334zM739 459q0 -101 60 -165.5t157 -64.5q127 0 221.5 94t94.5 226q0 100 -60 165.5t-157 65.5q-127 0 -221.5 -94.5t-94.5 -226.5z" />
<glyph unicode="A" horiz-adv-x="1501" d="M10 0l584 1434h313l584 -1434h-303l-127 317h-639l-125 -317h-287zM522 567h439l-220 549z" />
<glyph unicode="B" horiz-adv-x="1275" d="M113 0v1434h553q194 0 315 -113t121 -285q0 -183 -146 -297q107 -43 167.5 -133.5t60.5 -208.5q0 -170 -117 -283.5t-295 -113.5h-659zM387 242h326q83 0 134.5 51t51.5 129t-51 128t-135 50h-326v-358zM387 834h266q83 0 136 51.5t53 128.5t-53 127.5t-136 50.5h-266 v-358z" />
<glyph unicode="C" horiz-adv-x="1564" d="M72 717q0 154 58 290.5t158 234.5t240 155t297 57q120 0 229.5 -34.5t193 -93.5t145.5 -132t100 -156l-260 -100q-55 114 -163.5 186t-244.5 72q-196 0 -329.5 -138t-133.5 -341q0 -202 133 -339.5t330 -137.5q136 0 244.5 71.5t163.5 184.5l260 -101q-38 -83 -100 -156 t-145.5 -132t-193 -93t-229.5 -34q-157 0 -297 57t-240 155t-158 234.5t-58 290.5z" />
<glyph unicode="D" horiz-adv-x="1480" d="M113 0v1434h563q156 0 292.5 -55.5t233 -150.5t152 -228t55.5 -283t-55.5 -283t-152 -228t-233 -150.5t-292.5 -55.5h-563zM395 250h258q204 0 334.5 132.5t130.5 334.5q0 203 -130 335t-335 132h-258v-934z" />
<glyph unicode="E" horiz-adv-x="1146" d="M113 0v1434h948v-250h-666v-342h645v-250h-645v-342h666v-250h-948z" />
<glyph unicode="F" horiz-adv-x="1064" d="M113 0v1434h907v-250h-625v-373h604v-250h-604v-561h-282z" />
<glyph unicode="G" horiz-adv-x="1648" d="M72 717q0 154 58 290.5t158 234.5t240 155t297 57q120 0 229.5 -34.5t193 -93.5t145.5 -132t100 -156l-260 -100q-55 114 -163.5 186t-244.5 72q-196 0 -329.5 -138t-133.5 -341q0 -202 133 -339.5t330 -137.5q163 0 277.5 91.5t140.5 221.5h-536v250h852q4 -44 4 -87 q0 -98 -23 -190q-32 -131 -101 -229t-164.5 -170.5t-211 -109.5t-238.5 -37q-157 0 -297 57t-240 155t-158 234.5t-58 290.5z" />
<glyph unicode="H" horiz-adv-x="1501" d="M113 0v1434h282v-592h711v592h283v-1434h-283v592h-711v-592h-282z" />
<glyph unicode="I" horiz-adv-x="507" d="M113 0v1434h282v-1434h-282z" />
<glyph unicode="J" horiz-adv-x="1110" d="M20 420l283 41q4 -114 64.5 -167.5t152.5 -53.5q98 0 157.5 64t59.5 169v961h281v-961q0 -150 -68.5 -263.5t-182.5 -171.5t-255 -58q-202 0 -338.5 116.5t-153.5 323.5z" />
<glyph unicode="K" horiz-adv-x="1372" d="M113 0v1434h282v-621l549 621h352l-520 -584l592 -850h-340l-442 631l-191 -213v-418h-282z" />
<glyph unicode="L" horiz-adv-x="1101" d="M113 0v1434h282v-1184h666v-250h-948z" />
<glyph unicode="M" horiz-adv-x="1828" d="M113 0v1434h383l426 -1074l426 1074h368v-1434h-274v981l-402 -981h-254l-399 979v-979h-274z" />
<glyph unicode="N" horiz-adv-x="1501" d="M113 0v1434h274l719 -961v961h283v-1434h-275l-719 961v-961h-282z" />
<glyph unicode="O" horiz-adv-x="1648" d="M72 717q0 154 58 290.5t158 234.5t240 155t297 57q209 0 381.5 -97t271.5 -266t99 -374t-99 -374t-271.5 -266t-381.5 -97q-157 0 -297 57t-240 155t-158 234.5t-58 290.5zM362 717q0 -202 133 -339.5t330 -137.5q195 0 328 137.5t133 339.5q0 203 -133 341t-328 138 q-196 0 -329.5 -138t-133.5 -341z" />
<glyph unicode="P" horiz-adv-x="1259" d="M113 0v1434h600q233 0 377.5 -134.5t144.5 -341.5q0 -206 -144 -337.5t-378 -131.5h-318v-489h-282zM395 739h318q103 0 167 63.5t64 158.5q0 98 -64 160.5t-167 62.5h-318v-445z" />
<glyph unicode="Q" horiz-adv-x="1648" d="M72 717q0 154 58 290.5t158 234.5t240 155t297 57q209 0 381.5 -97t271.5 -266t99 -374q0 -297 -201 -508l168 -199l-203 -172l-182 215q-155 -73 -334 -73q-157 0 -297 57t-240 155t-158 234.5t-58 290.5zM362 717q0 -202 133 -339.5t330 -137.5q85 0 156 26l-174 209 l203 170l184 -219q92 129 92 291q0 203 -133 341t-328 138q-196 0 -329.5 -138t-133.5 -341z" />
<glyph unicode="R" horiz-adv-x="1306" d="M113 0v1434h602q223 0 361 -128.5t138 -326.5q0 -154 -87 -270t-236 -162l364 -547h-335l-349 522h-176v-522h-282zM395 780h320q92 0 150.5 57.5t58.5 143.5q0 89 -58 146t-151 57h-320v-404z" />
<glyph unicode="S" horiz-adv-x="1239" d="M92 373l285 55q40 -188 256 -188q101 0 162 42.5t61 114.5q0 48 -25 83.5t-67 58.5t-97 41t-115 35.5t-120.5 37.5t-115.5 51.5t-97 73.5t-67 107.5t-25 148.5q0 181 142.5 300.5t355.5 119.5q211 0 346 -107t162 -284l-285 -57q-39 190 -234 190q-90 0 -143 -42.5 t-53 -113.5q0 -44 25 -76.5t67 -52.5t97 -37t115 -33.5t120.5 -37t115.5 -53.5t97 -76.5t67 -112t25 -155.5q0 -183 -149 -304.5t-373 -121.5q-221 0 -365 109t-168 284z" />
<glyph unicode="T" horiz-adv-x="1208" d="M20 1184v250h1168v-250h-443v-1184h-282v1184h-443z" />
<glyph unicode="U" horiz-adv-x="1419" d="M92 561v873h283v-873q0 -141 92.5 -231t241.5 -90q152 0 243.5 90t91.5 231v873h283v-873q0 -168 -79 -300.5t-220 -206.5t-319 -74q-269 0 -443 163.5t-174 417.5z" />
<glyph unicode="V" horiz-adv-x="1439" d="M10 1434h301l418 -1108l414 1108h287l-553 -1434h-314z" />
<glyph unicode="W" horiz-adv-x="2220" d="M57 1434h308l301 -1069l292 1069h318l293 -1069l301 1069h293l-430 -1434h-330l-293 969l-295 -969h-330z" />
<glyph unicode="X" horiz-adv-x="1380" d="M10 0l512 713l-512 721h342l340 -490l344 490h334l-512 -713l512 -721h-342l-342 492l-342 -492h-334z" />
<glyph unicode="Y" horiz-adv-x="1349" d="M-10 1434h332l362 -686l360 686h316l-545 -969v-465h-280v465z" />
<glyph unicode="Z" horiz-adv-x="1245" d="M102 0v250l695 934h-695v250h1041v-250l-694 -934h694v-250h-1041z" />
<glyph unicode="[" horiz-adv-x="645" d="M113 -205v1843h512v-249h-230v-1344h230v-250h-512z" />
<glyph unicode="\" horiz-adv-x="714" d="M-72 1843h267l591 -2253h-266z" />
<glyph unicode="]" horiz-adv-x="645" d="M20 45h232v1344h-232v249h512v-1843h-512v250z" />
<glyph unicode="^" horiz-adv-x="1282" d="M72 666l420 1054h299l419 -1054h-286l-291 776l-293 -776h-268z" />
<glyph unicode="_" horiz-adv-x="1054" d="M20 -20h1014v-236h-1014v236z" />
<glyph unicode="`" horiz-adv-x="716" d="M102 1513h297l215 -327h-264z" />
<glyph unicode="a" d="M72 528q0 152 66.5 277.5t184 197.5t259.5 72q208 0 342 -153v133h266v-1055h-266v131q-135 -151 -342 -151q-142 0 -259 71.5t-184 197.5t-67 279zM348 528q0 -131 82 -218t205 -87t206 87.5t83 217.5q0 129 -83 216t-206 87t-205 -87t-82 -216z" />
<glyph unicode="b" d="M113 0v1516h266v-594q131 153 342 153q142 0 259.5 -72t184 -197.5t66.5 -277.5q0 -153 -67 -279t-184 -197.5t-259 -71.5q-210 0 -342 151v-131h-266zM379 528q0 -130 83 -217.5t206 -87.5t204.5 87t81.5 218q0 129 -81.5 216t-204.5 87t-206 -87t-83 -216z" />
<glyph unicode="c" horiz-adv-x="1191" d="M72 528q0 152 73.5 277.5t203 197.5t286.5 72q163 0 289 -78.5t196 -210.5l-225 -118q-39 76 -106.5 119.5t-153.5 43.5q-123 0 -205 -87t-82 -216q0 -131 82 -218t205 -87q85 0 153 44t107 120l225 -119q-70 -132 -195.5 -210t-289.5 -78q-239 0 -401 157.5t-162 390.5z " />
<glyph unicode="d" d="M72 528q0 152 66.5 277.5t184 197.5t259.5 72q208 0 342 -153v594h266v-1516h-266v131q-135 -151 -342 -151q-142 0 -259 71.5t-184 197.5t-67 279zM348 528q0 -131 82 -218t205 -87t206 87.5t83 217.5q0 129 -83 216t-206 87t-205 -87t-82 -216z" />
<glyph unicode="e" horiz-adv-x="1249" d="M72 528q0 152 72.5 277.5t199.5 197.5t281 72q129 0 239.5 -51.5t184 -137.5t107.5 -204q21 -74 20 -153q0 -47 -7 -95h-821q25 -99 101 -162t194 -63q88 0 159 40.5t111 112.5l220 -98q-72 -129 -202 -206.5t-296 -77.5q-239 0 -401 157.5t-162 390.5zM352 637h547 q-27 94 -100 152.5t-174 58.5q-100 0 -173.5 -59.5t-99.5 -151.5z" />
<glyph unicode="f" horiz-adv-x="897" d="M31 821v234h200v53q0 211 99 319.5t264 108.5q143 0 293 -72l-84 -217q-98 45 -160 45q-68 0 -106.5 -42.5t-38.5 -129.5v-65h331v-234h-331v-821h-267v821h-200z" />
<glyph unicode="g" d="M72 543q0 148 67 270t184 192t259 70q206 0 342 -149v129h266v-936q0 -233 -162 -391t-401 -158q-164 0 -294 78.5t-198 208.5l238 125q38 -80 103 -125t151 -45q125 0 211 87t86 220v39q-135 -148 -342 -148q-142 0 -259.5 70t-184 192.5t-66.5 270.5zM348 543 q0 -123 82 -206t205 -83t206 83t83 206t-83 205.5t-206 82.5t-205 -82.5t-82 -205.5z" />
<glyph unicode="h" horiz-adv-x="1241" d="M113 0v1516h266v-601q57 75 142.5 117.5t189.5 42.5q189 0 308.5 -123t119.5 -313v-639h-267v592q0 106 -69 174t-176 68q-108 0 -178 -68.5t-70 -173.5v-592h-266z" />
<glyph unicode="i" horiz-adv-x="491" d="M113 0v1055h266v-1055h-266zM113 1194v311h266v-311h-266z" />
<glyph unicode="j" horiz-adv-x="532" d="M-20 -160q18 -2 35 -2q69 0 101 35q38 43 38 143v1039h266v-1071q0 -219 -100 -314q-85 -82 -277 -82q-30 0 -63 2v250zM154 1194v311h266v-311h-266z" />
<glyph unicode="k" horiz-adv-x="1165" d="M113 0v1516h266v-900l389 439h336l-406 -445l478 -610h-338l-322 412l-137 -150v-262h-266z" />
<glyph unicode="l" horiz-adv-x="491" d="M113 0v1516h266v-1516h-266z" />
<glyph unicode="m" horiz-adv-x="1898" d="M113 0v1055h266v-119q54 67 132 103t167 36q106 0 190.5 -48.5t137.5 -131.5q58 84 147 132t203 48q193 0 316.5 -131.5t123.5 -337.5v-606h-266v608q0 98 -62 162t-159 64q-96 0 -159 -64t-63 -162v-608h-266v608q0 98 -62 162t-159 64q-95 0 -158 -64t-63 -162v-608 h-266z" />
<glyph unicode="n" horiz-adv-x="1241" d="M113 0v1055h266v-140q57 75 142.5 117.5t189.5 42.5q189 0 308.5 -123t119.5 -313v-639h-267v592q0 106 -69 174t-176 68q-108 0 -178 -68.5t-70 -173.5v-592h-266z" />
<glyph unicode="o" horiz-adv-x="1269" d="M72 528q0 152 73.5 277.5t203 197.5t286.5 72t286.5 -72t203 -197.5t73.5 -277.5q0 -233 -162 -390.5t-401 -157.5t-401 157.5t-162 390.5zM348 528q0 -131 82 -218t205 -87t206 87.5t83 217.5q0 129 -83 216t-206 87t-205 -87t-82 -216z" />
<glyph unicode="p" d="M113 -410v1465h266v-133q131 153 342 153q142 0 259.5 -72t184 -197.5t66.5 -277.5q0 -153 -67 -279t-184 -197.5t-259 -71.5q-210 0 -342 151v-541h-266zM379 528q0 -130 83 -217.5t206 -87.5t204.5 87t81.5 218q0 129 -81.5 216t-204.5 87t-206 -87t-83 -216z" />
<glyph unicode="q" d="M72 528q0 152 66.5 277.5t184 197.5t259.5 72q208 0 342 -153v133h266v-1465h-266v541q-135 -151 -342 -151q-142 0 -259 71.5t-184 197.5t-67 279zM348 528q0 -131 82 -218t205 -87t206 87.5t83 217.5q0 129 -83 216t-206 87t-205 -87t-82 -216z" />
<glyph unicode="r" horiz-adv-x="817" d="M113 0v1055h266v-142q71 98 181 139q60 22 129 22q56 0 118 -15l-33 -250q-76 23 -140 23q-79 0 -142 -35q-113 -64 -113 -205v-592h-266z" />
<glyph unicode="s" horiz-adv-x="1101" d="M92 279l264 53q6 -65 57.5 -99t137.5 -34q89 0 139.5 28.5t50.5 75.5q0 41 -34 67.5t-88.5 40.5t-120 26.5t-131 32.5t-120 51t-88.5 89.5t-34 139.5q0 140 121.5 232.5t304.5 92.5q185 0 302.5 -80.5t141.5 -216.5l-264 -57q-20 135 -188 135q-64 0 -107 -26t-43 -70 q0 -33 26.5 -56t70 -35.5t99 -26t113 -25t113 -36t99 -57t70 -88.5t26.5 -129q0 -139 -132.5 -233t-326.5 -94q-189 0 -313.5 83t-145.5 216z" />
<glyph unicode="t" horiz-adv-x="962" d="M31 821v234h215v235l266 84v-319h369v-234h-369v-426q0 -87 38.5 -129.5t108.5 -42.5q69 0 189 60l84 -217q-170 -86 -322 -86q-165 0 -264.5 109t-99.5 321v411h-215z" />
<glyph unicode="u" horiz-adv-x="1189" d="M102 444v611h267v-611q0 -98 63.5 -159.5t163.5 -61.5q98 0 161.5 62t63.5 159v611h266v-611q0 -204 -139 -334t-352 -130q-217 0 -355.5 129.5t-138.5 334.5z" />
<glyph unicode="v" horiz-adv-x="1118" d="M-10 1055h286l291 -776l293 776h268l-419 -1055h-299z" />
<glyph unicode="w" horiz-adv-x="1734" d="M10 1055h279l223 -756l229 756h271l229 -756l221 756h262l-342 -1055h-292l-222 651l-223 -651h-293z" />
<glyph unicode="x" horiz-adv-x="1138" d="M27 0l385 522l-385 533h327l221 -320l228 320h311l-385 -523l385 -532h-328l-223 322l-227 -322h-309z" />
<glyph unicode="y" horiz-adv-x="1118" d="M-10 1055h286l291 -776l291 776h270l-583 -1465h-269l150 371z" />
<glyph unicode="z" horiz-adv-x="1091" d="M102 0v236l551 585h-551v234h887v-234l-553 -585h553v-236h-887z" />
<glyph unicode="{" horiz-adv-x="704" d="M10 592v250q69 0 110 11.5t64.5 42.5t31 73.5t7.5 115.5v113q0 214 123 327t338 113v-249q-82 0 -131 -60t-49 -162v-108q0 -138 -47.5 -221.5t-163.5 -120.5q106 -32 158.5 -113.5t52.5 -228.5v-109q0 -102 49 -161.5t131 -59.5v-250q-215 0 -338 113.5t-123 327.5v112 q0 74 -7.5 116.5t-31 73.5t-64.5 42.5t-110 11.5z" />
<glyph unicode="|" horiz-adv-x="477" d="M113 -410v2253h252v-2253h-252z" />
<glyph unicode="}" horiz-adv-x="704" d="M20 45q83 0 132 59.5t49 161.5v109q0 138 47.5 221.5t163.5 120.5q-106 32 -158.5 113.5t-52.5 228.5v108q0 103 -49 162.5t-132 59.5v249q215 0 338 -113t123 -327v-113q0 -142 41 -192.5t172 -50.5v-250q-68 0 -109 -11.5t-64.5 -42t-31.5 -74t-8 -116.5v-112 q0 -214 -123 -327.5t-338 -113.5v250z" />
<glyph unicode="~" horiz-adv-x="1122" d="M72 649q32 118 118.5 191t206.5 73q52 0 95 -14.5t70 -34.5t50.5 -40.5t48 -35t50.5 -14.5q42 0 76.5 29t54.5 82l209 -101q-32 -118 -118 -191t-206 -73q-53 0 -96 14t-70 34t-50.5 40.5t-48 34.5t-50.5 14q-89 0 -131 -108z" />
<glyph unicode="&#xa2;" horiz-adv-x="1191" d="M72 528q0 206 132 357t337 182v236h180v-234q133 -20 236 -95t163 -188l-225 -118q-60 113 -174 151v-583q112 34 174 151l225 -119q-60 -113 -163 -187.5t-236 -94.5v-234h-180v236q-206 31 -337.5 181t-131.5 359zM348 528q0 -103 53 -181t140 -109v577 q-87 -30 -140 -107.5t-53 -179.5z" />
<glyph unicode="&#xa3;" horiz-adv-x="1298" d="M113 0v250h129v381h-129v172h129v186q0 205 137.5 335t353.5 130q215 0 354.5 -130.5t139.5 -334.5h-283q0 90 -60 148.5t-151 58.5t-151 -58.5t-60 -148.5v-186h426v-172h-426v-381h631v-250h-1040z" />
<glyph unicode="&#xa5;" horiz-adv-x="1359" d="M-6 1434h332l362 -686l363 686h315l-356 -631h241v-172h-338l-92 -166v-465h-282v465l-95 166h-333v172h237z" />
<glyph unicode="&#xa8;" horiz-adv-x="974" d="M102 1194v311h252v-311h-252zM573 1194v311h252v-311h-252z" />
<glyph unicode="&#xa9;" horiz-adv-x="1648" d="M72 717q0 154 58 290.5t158 234.5t240 155t297 57q209 0 381.5 -97t271.5 -266t99 -374t-99 -374t-271.5 -266t-381.5 -97q-157 0 -297 57t-240 155t-158 234.5t-58 290.5zM281 717q0 -233 157 -392t387 -159t386.5 159t156.5 392q0 153 -71 280t-196 200t-276 73 t-276 -73t-196.5 -200t-71.5 -280zM418 717q0 173 121 291t299 118q122 0 215.5 -58t144.5 -157l-170 -92q-30 57 -79 89t-111 32q-91 0 -151 -63t-60 -160q0 -95 60 -159t151 -64q62 0 111 31.5t79 88.5l170 -90q-51 -100 -144 -157.5t-216 -57.5q-178 0 -299 117.5 t-121 290.5z" />
<glyph unicode="&#xab;" horiz-adv-x="1155" d="M72 403v250l499 308v-269l-276 -160l276 -157v-281zM584 403v250l499 308v-269l-276 -160l276 -157v-281z" />
<glyph unicode="&#xad;" horiz-adv-x="675" d="M72 414v233h532v-233h-532z" />
<glyph unicode="&#xae;" horiz-adv-x="825" d="M72 1122q0 141 98 236.5t244 95.5q145 0 242.5 -95.5t97.5 -236.5t-97.5 -236t-242.5 -95q-146 0 -244 95t-98 236zM162 1122q0 -107 72.5 -180.5t179.5 -73.5q106 0 179 73.5t73 180.5t-73 180.5t-179 73.5q-107 0 -179.5 -73.5t-72.5 -180.5zM281 954v336h165 q52 0 85.5 -31t33.5 -81q0 -36 -19.5 -64.5t-51.5 -40.5l75 -119h-100l-72 113h-28v-113h-88zM369 1141h65q19 0 31 10t12 29t-12 29t-31 10h-65v-78z" />
<glyph unicode="&#xb4;" horiz-adv-x="716" d="M102 1186l217 327h295l-245 -327h-267z" />
<glyph unicode="&#xb8;" horiz-adv-x="653" d="M102 -412l31 213q27 -8 57 -8q50 0 78.5 23.5t28.5 62.5q0 62 -74 121h252q76 -94 76 -190q0 -103 -83 -171.5t-218 -68.5q-80 0 -148 18z" />
<glyph unicode="&#xbb;" horiz-adv-x="1155" d="M72 94v271l276 157l-276 160v279l499 -308v-250zM584 94v271l276 157l-276 160v279l499 -308v-250z" />
<glyph unicode="&#xc1;" horiz-adv-x="1501" d="M10 0l584 1434h313l584 -1434h-303l-127 317h-639l-125 -317h-287zM520 1528l297 315h326l-328 -315h-295zM522 567h439l-220 549z" />
<glyph unicode="&#xc4;" horiz-adv-x="1501" d="M10 0l584 1434h313l584 -1434h-303l-127 317h-639l-125 -317h-287zM379 1534v311h252v-311h-252zM522 567h439l-220 549zM870 1534v311h252v-311h-252z" />
<glyph unicode="&#xc9;" horiz-adv-x="1146" d="M113 0v1434h948v-250h-666v-342h645v-250h-645v-342h666v-250h-948zM344 1528l297 315h326l-328 -315h-295z" />
<glyph unicode="&#xcd;" horiz-adv-x="507" d="M72 1528l297 315h325l-327 -315h-295zM113 0v1434h282v-1434h-282z" />
<glyph unicode="&#xd3;" horiz-adv-x="1648" d="M72 717q0 154 58 290.5t158 234.5t240 155t297 57q209 0 381.5 -97t271.5 -266t99 -374t-99 -374t-271.5 -266t-381.5 -97q-157 0 -297 57t-240 155t-158 234.5t-58 290.5zM362 717q0 -202 133 -339.5t330 -137.5q195 0 328 137.5t133 339.5q0 203 -133 341t-328 138 q-196 0 -329.5 -138t-133.5 -341zM594 1528l297 315h326l-328 -315h-295z" />
<glyph unicode="&#xd6;" horiz-adv-x="1648" d="M72 717q0 154 58 290.5t158 234.5t240 155t297 57q209 0 381.5 -97t271.5 -266t99 -374t-99 -374t-271.5 -266t-381.5 -97q-157 0 -297 57t-240 155t-158 234.5t-58 290.5zM362 717q0 -202 133 -339.5t330 -137.5q195 0 328 137.5t133 339.5q0 203 -133 341t-328 138 q-196 0 -329.5 -138t-133.5 -341zM453 1534v311h252v-311h-252zM944 1534v311h252v-311h-252z" />
<glyph unicode="&#xda;" horiz-adv-x="1419" d="M92 561v873h283v-873q0 -141 92.5 -231t241.5 -90q152 0 243.5 90t91.5 231v873h283v-873q0 -168 -79 -300.5t-220 -206.5t-319 -74q-269 0 -443 163.5t-174 417.5zM479 1528l297 315h326l-328 -315h-295z" />
<glyph unicode="&#xdc;" horiz-adv-x="1419" d="M92 561v873h283v-873q0 -141 92.5 -231t241.5 -90q152 0 243.5 90t91.5 231v873h283v-873q0 -168 -79 -300.5t-220 -206.5t-319 -74q-269 0 -443 163.5t-174 417.5zM338 1534v311h252v-311h-252zM829 1534v311h252v-311h-252z" />
<glyph unicode="&#xdd;" horiz-adv-x="1359" d="M-10 1434h332l362 -686l360 686h316l-545 -969v-465h-280v465zM451 1528l297 315h325l-328 -315h-294z" />
<glyph unicode="&#xdf;" horiz-adv-x="1280" d="M113 0v1036q0 227 138.5 363.5t373.5 136.5q215 0 355 -118t140 -302q0 -199 -170 -313q105 -53 171.5 -154.5t66.5 -224.5q0 -195 -124.5 -319.5t-328.5 -124.5q-132 0 -254 47l54 237q79 -33 159 -33q106 0 167 59t61 154t-72.5 158.5t-192.5 63.5h-94v233h53 q101 0 169.5 57t68.5 140q0 84 -65 140t-164 56q-105 0 -175.5 -66.5t-70.5 -185.5v-1040h-266z" />
<glyph unicode="&#xe1;" d="M72 528q0 152 66.5 277.5t184 197.5t259.5 72q208 0 342 -153v133h266v-1055h-266v131q-135 -151 -342 -151q-142 0 -259 71.5t-184 197.5t-67 279zM348 528q0 -131 82 -218t205 -87t206 87.5t83 217.5q0 129 -83 216t-206 87t-205 -87t-82 -216zM471 1186l217 327h295 l-246 -327h-266z" />
<glyph unicode="&#xe4;" d="M72 528q0 152 66.5 277.5t184 197.5t259.5 72q208 0 342 -153v133h266v-1055h-266v131q-135 -151 -342 -151q-142 0 -259 71.5t-184 197.5t-67 279zM285 1194v311h252v-311h-252zM348 528q0 -131 82 -218t205 -87t206 87.5t83 217.5q0 129 -83 216t-206 87t-205 -87 t-82 -216zM756 1194v311h252v-311h-252z" />
<glyph unicode="&#xe9;" horiz-adv-x="1249" d="M72 528q0 152 72.5 277.5t199.5 197.5t281 72q129 0 239.5 -51.5t184 -137.5t107 -204.5t13.5 -247.5h-821q25 -99 101 -162t194 -63q88 0 159 40.5t111 112.5l220 -98q-72 -129 -202 -206.5t-296 -77.5q-239 0 -401 157.5t-162 390.5zM352 637h547q-27 94 -100 152.5 t-174 58.5q-100 0 -173.5 -59.5t-99.5 -151.5zM451 1186l217 327h295l-246 -327h-266z" />
<glyph unicode="&#xed;" horiz-adv-x="491" d="M72 1186l217 327h295l-246 -327h-266zM113 0v1055h266v-1055h-266z" />
<glyph unicode="&#xf3;" horiz-adv-x="1269" d="M72 528q0 152 73.5 277.5t203 197.5t286.5 72t286.5 -72t203 -197.5t73.5 -277.5q0 -233 -162 -390.5t-401 -157.5t-401 157.5t-162 390.5zM348 528q0 -131 82 -218t205 -87t206 87.5t83 217.5q0 129 -83 216t-206 87t-205 -87t-82 -216zM461 1186l217 327h295l-246 -327 h-266z" />
<glyph unicode="&#xf6;" horiz-adv-x="1269" d="M72 528q0 152 73.5 277.5t203 197.5t286.5 72t286.5 -72t203 -197.5t73.5 -277.5q0 -233 -162 -390.5t-401 -157.5t-401 157.5t-162 390.5zM272 1194v311h252v-311h-252zM348 528q0 -131 82 -218t205 -87t206 87.5t83 217.5q0 129 -83 216t-206 87t-205 -87t-82 -216z M743 1194v311h252v-311h-252z" />
<glyph unicode="&#xfa;" horiz-adv-x="1189" d="M102 444v611h267v-611q0 -98 63.5 -159.5t163.5 -61.5q98 0 161.5 62t63.5 159v611h266v-611q0 -204 -139 -334t-352 -130q-217 0 -355.5 129.5t-138.5 334.5zM420 1186l217 327h295l-246 -327h-266z" />
<glyph unicode="&#xfc;" horiz-adv-x="1189" d="M102 444v611h267v-611q0 -98 63.5 -159.5t163.5 -61.5q98 0 161.5 62t63.5 159v611h266v-611q0 -204 -139 -334t-352 -130q-217 0 -355.5 129.5t-138.5 334.5zM233 1194v311h252v-311h-252zM705 1194v311h251v-311h-251z" />
<glyph unicode="&#xfd;" horiz-adv-x="1118" d="M-10 1055h286l291 -776l291 776h270l-583 -1465h-269l150 371zM385 1186l217 327h295l-246 -327h-266z" />
<glyph unicode="&#x10c;" horiz-adv-x="1564" d="M72 717q0 154 58 290.5t158 234.5t240 155t297 57q120 0 229.5 -34.5t193 -93.5t145.5 -132t100 -156l-260 -100q-55 114 -163.5 186t-244.5 72q-196 0 -329.5 -138t-133.5 -341q0 -202 133 -339.5t330 -137.5q136 0 244.5 71.5t163.5 184.5l260 -101q-38 -83 -100 -156 t-145.5 -132t-193 -93t-229.5 -34q-157 0 -297 57t-240 155t-158 234.5t-58 290.5zM383 1843h295l145 -145l146 145h295l-301 -315h-279z" />
<glyph unicode="&#x10d;" horiz-adv-x="1191" d="M72 528q0 152 73.5 277.5t203 197.5t286.5 72q163 0 289 -78.5t196 -210.5l-225 -118q-39 76 -106.5 119.5t-153.5 43.5q-123 0 -205 -87t-82 -216q0 -131 82 -218t205 -87q85 0 153 44t107 120l225 -119q-70 -132 -195.5 -210t-289.5 -78q-239 0 -401 157.5t-162 390.5z M254 1513h250l131 -167l131 167h250l-232 -327h-299z" />
<glyph unicode="&#x10e;" horiz-adv-x="1480" d="M113 0v1434h563q156 0 292.5 -55.5t233 -150.5t152 -228t55.5 -283t-55.5 -283t-152 -228t-233 -150.5t-292.5 -55.5h-563zM207 1843h295l145 -145l146 145h294l-301 -315h-278zM395 250h258q204 0 334.5 132.5t130.5 334.5q0 203 -130 335t-335 132h-258v-934z" />
<glyph unicode="&#x10f;" horiz-adv-x="1583" d="M72 528q0 152 66.5 277.5t184 197.5t259.5 72q208 0 342 -153v594h266v-1516h-266v131q-135 -151 -342 -151q-142 0 -259 71.5t-184 197.5t-67 279zM348 528q0 -131 82 -218t205 -87t206 87.5t83 217.5q0 129 -83 216t-206 87t-205 -87t-82 -216zM1280 1178l63 395h240 l-102 -395h-201z" />
<glyph unicode="&#x11a;" horiz-adv-x="1146" d="M113 0v1434h948v-250h-666v-342h645v-250h-645v-342h666v-250h-948zM133 1843h295l145 -145l146 145h295l-301 -315h-279z" />
<glyph unicode="&#x11b;" horiz-adv-x="1249" d="M72 528q0 152 72.5 277.5t199.5 197.5t281 72q129 0 239.5 -51.5t184 -137.5t107 -204.5t13.5 -247.5h-821q25 -99 101 -162t194 -63q88 0 159 40.5t111 112.5l220 -98q-72 -129 -202 -206.5t-296 -77.5q-239 0 -401 157.5t-162 390.5zM244 1513h250l131 -167l131 167 h250l-232 -327h-299zM352 637h547q-27 94 -100 152.5t-174 58.5q-100 0 -173.5 -59.5t-99.5 -151.5z" />
<glyph unicode="&#x147;" horiz-adv-x="1501" d="M113 0v1434h274l719 -961v961h283v-1434h-275l-719 961v-961h-282zM309 1843h295l146 -145l145 145h295l-301 -315h-279z" />
<glyph unicode="&#x148;" horiz-adv-x="1241" d="M113 0v1055h266v-140q57 75 142.5 117.5t189.5 42.5q189 0 308.5 -123t119.5 -313v-639h-267v592q0 106 -69 174t-176 68q-108 0 -178 -68.5t-70 -173.5v-592h-266zM238 1513h249l131 -167l132 167h249l-231 -327h-299z" />
<glyph unicode="&#x158;" horiz-adv-x="1306" d="M113 0v1434h602q223 0 361 -128.5t138 -326.5q0 -154 -87 -270t-236 -162l364 -547h-335l-349 522h-176v-522h-282zM152 1843h294l146 -145l145 145h295l-301 -315h-278zM395 780h320q92 0 150.5 57.5t58.5 143.5q0 89 -58 146t-151 57h-320v-404z" />
<glyph unicode="&#x159;" horiz-adv-x="817" d="M29 1513h250l131 -167l131 167h250l-232 -327h-299zM113 0v1055h266v-142q71 98 181.5 139t246.5 7l-33 -250q-169 52 -282 -12t-113 -205v-592h-266z" />
<glyph unicode="&#x160;" horiz-adv-x="1239" d="M92 373l285 55q40 -188 256 -188q101 0 162 42.5t61 114.5q0 48 -25 83.5t-67 58.5t-97 41t-115 35.5t-120.5 37.5t-115.5 51.5t-97 73.5t-67 107.5t-25 148.5q0 181 142.5 300.5t355.5 119.5q211 0 346 -107t162 -284l-285 -57q-39 190 -234 190q-90 0 -143 -42.5 t-53 -113.5q0 -44 25 -76.5t67 -52.5t97 -37t115 -33.5t120.5 -37t115.5 -53.5t97 -76.5t67 -112t25 -155.5q0 -183 -149 -304.5t-373 -121.5q-221 0 -365 109t-168 284zM182 1843h295l146 -145l145 145h295l-301 -315h-279z" />
<glyph unicode="&#x161;" horiz-adv-x="1101" d="M92 279l264 53q6 -65 57.5 -99t137.5 -34q89 0 139.5 28.5t50.5 75.5q0 41 -34 67.5t-88.5 40.5t-120 26.5t-131 32.5t-120 51t-88.5 89.5t-34 139.5q0 140 121.5 232.5t304.5 92.5q185 0 302.5 -80.5t141.5 -216.5l-264 -57q-20 135 -188 135q-64 0 -107 -26t-43 -70 q0 -33 26.5 -56t70 -35.5t99 -26t113 -25t113 -36t99 -57t70 -88.5t26.5 -129q0 -139 -132.5 -233t-326.5 -94q-189 0 -313.5 83t-145.5 216zM170 1513h250l131 -167l131 167h250l-232 -327h-299z" />
<glyph unicode="&#x164;" horiz-adv-x="1208" d="M20 1184v250h1168v-250h-443v-1184h-282v1184h-443zM164 1843h295l145 -145l146 145h294l-301 -315h-278z" />
<glyph unicode="&#x165;" horiz-adv-x="962" d="M31 821v234h215v235l266 84v-319h369v-234h-369v-426q0 -87 38.5 -129.5t108.5 -42.5q69 0 189 60l84 -217q-170 -86 -322 -86q-165 0 -264.5 109t-99.5 321v411h-215zM604 1178l64 395h239l-102 -395h-201z" />
<glyph unicode="&#x16e;" horiz-adv-x="1419" d="M92 561v873h283v-873q0 -141 92.5 -231t241.5 -90q152 0 243.5 90t91.5 231v873h283v-873q0 -168 -79 -300.5t-220 -206.5t-319 -74q-269 0 -443 163.5t-174 417.5zM442 1708q0 103 77 171.5t192 68.5q114 0 190 -68.5t76 -171.5q0 -104 -76 -173t-190 -69 q-116 0 -192.5 69t-76.5 173zM616 1708q0 -39 27.5 -65.5t67.5 -26.5q39 0 65.5 26.5t26.5 65.5t-26.5 65.5t-65.5 26.5q-40 0 -67.5 -26.5t-27.5 -65.5z" />
<glyph unicode="&#x16f;" horiz-adv-x="1189" d="M102 444v611h267v-611q0 -98 63.5 -159.5t163.5 -61.5q98 0 161.5 62t63.5 159v611h266v-611q0 -204 -139 -334t-352 -130q-217 0 -355.5 129.5t-138.5 334.5zM336 1350q0 98 75 165.5t185 67.5t184 -67t74 -166q0 -100 -74 -167t-184 -67t-185 67t-75 167zM504 1350 q0 -40 27 -66.5t65 -26.5q40 0 66 26.5t26 66.5t-26 66t-66 26q-39 0 -65.5 -26.5t-26.5 -65.5z" />
<glyph unicode="&#x17d;" horiz-adv-x="1245" d="M102 0v250l695 934h-695v250h1041v-250l-694 -934h694v-250h-1041zM182 1843h295l146 -145l145 145h295l-301 -315h-279z" />
<glyph unicode="&#x17e;" horiz-adv-x="1091" d="M102 0v236l551 585h-551v234h887v-234l-553 -585h553v-236h-887zM164 1513h250l131 -167l131 167h250l-232 -327h-299z" />
<glyph unicode="&#x2c6;" horiz-adv-x="966" d="M102 1186l232 327h299l231 -327h-250l-131 166l-131 -166h-250z" />
<glyph unicode="&#x2da;" horiz-adv-x="722" d="M102 1350q0 98 75 165.5t185 67.5t184.5 -67.5t74.5 -165.5q0 -100 -74.5 -167t-184.5 -67t-185 67t-75 167zM270 1350q0 -40 27 -66.5t65 -26.5q40 0 66.5 26.5t26.5 66.5t-26.5 66t-66.5 26q-39 0 -65.5 -26.5t-26.5 -65.5z" />
<glyph unicode="&#x2dc;" horiz-adv-x="1040" d="M102 1294q25 93 100.5 153t172.5 60q51 0 96 -17t70 -37t55 -37t55 -17q72 0 103 88l168 -82q-25 -94 -99.5 -153.5t-171.5 -59.5q-52 0 -97 16.5t-70.5 36.5t-54.5 36.5t-54 16.5q-35 0 -62.5 -22.5t-40.5 -63.5z" />
<glyph unicode="&#x2000;" horiz-adv-x="974" />
<glyph unicode="&#x2001;" horiz-adv-x="1948" />
<glyph unicode="&#x2002;" horiz-adv-x="974" />
<glyph unicode="&#x2003;" horiz-adv-x="1948" />
<glyph unicode="&#x2004;" horiz-adv-x="649" />
<glyph unicode="&#x2005;" horiz-adv-x="487" />
<glyph unicode="&#x2006;" horiz-adv-x="324" />
<glyph unicode="&#x2007;" horiz-adv-x="324" />
<glyph unicode="&#x2008;" horiz-adv-x="243" />
<glyph unicode="&#x2009;" horiz-adv-x="389" />
<glyph unicode="&#x200a;" horiz-adv-x="108" />
<glyph unicode="&#x2010;" horiz-adv-x="675" d="M72 414v233h532v-233h-532z" />
<glyph unicode="&#x2011;" horiz-adv-x="675" d="M72 414v233h532v-233h-532z" />
<glyph unicode="&#x2012;" horiz-adv-x="675" d="M72 414v233h532v-233h-532z" />
<glyph unicode="&#x2013;" horiz-adv-x="1040" d="M20 414v233h1000v-233h-1000z" />
<glyph unicode="&#x2014;" horiz-adv-x="2064" d="M20 414v233h2024v-233h-2024z" />
<glyph unicode="&#x2018;" horiz-adv-x="522" d="M104 1096l123 563h203l-41 -563h-285z" />
<glyph unicode="&#x2019;" horiz-adv-x="522" d="M92 1096l41 563h285l-123 -563h-203z" />
<glyph unicode="&#x201a;" horiz-adv-x="522" d="M92 -225l41 563h285l-123 -563h-203z" />
<glyph unicode="&#x201c;" horiz-adv-x="921" d="M104 1096l123 563h203l-41 -563h-285zM504 1096l123 563h202l-41 -563h-284z" />
<glyph unicode="&#x201d;" horiz-adv-x="921" d="M92 1096l41 563h285l-123 -563h-203zM492 1096l40 563h285l-123 -563h-202z" />
<glyph unicode="&#x201e;" horiz-adv-x="921" d="M92 -225l41 563h285l-123 -563h-203zM492 -225l40 563h285l-123 -563h-202z" />
<glyph unicode="&#x2026;" horiz-adv-x="1853" d="M113 0v338h297v-338h-297zM778 0v338h297v-338h-297zM1444 0v338h297v-338h-297z" />
<glyph unicode="&#x202f;" horiz-adv-x="389" />
<glyph unicode="&#x2039;" horiz-adv-x="643" d="M72 403v250l499 308v-269l-276 -160l276 -157v-281z" />
<glyph unicode="&#x203a;" horiz-adv-x="643" d="M72 94v271l276 157l-276 160v279l499 -308v-250z" />
<glyph unicode="&#x205f;" horiz-adv-x="487" />
<glyph unicode="&#x20ac;" horiz-adv-x="1492" d="M72 479v174h108q-2 20 -2 64q0 42 2 65h-108v172h135q60 236 229 368t387 132q209 0 368.5 -121t229.5 -325l-286 -58q-44 112 -126.5 179t-185.5 67q-102 0 -186.5 -64t-128.5 -178h498l-35 -172h-500q-2 -23 -2 -65q0 -44 2 -64h469l-37 -174h-393q44 -114 127 -176.5 t186 -62.5t186 65.5t126 177.5l286 -55q-70 -204 -229.5 -326t-368.5 -122q-219 0 -387.5 131t-228.5 368h-135z" />
<glyph unicode="&#x2122;" horiz-adv-x="1298" d="M41 1315v119h465v-119h-168v-418h-129v418h-168zM571 897v537h174l132 -357l133 357h166v-537h-127v315l-115 -315h-121l-113 315v-315h-129z" />
<glyph unicode="&#x25fc;" horiz-adv-x="1054" d="M0 0v1055h1055v-1055h-1055z" />
</font>
</defs>
</svg>
