<?xml version="1.0" standalone="no"?>
<!DOCTYPE svg PUBLIC "-//W3C//DTD SVG 1.1//EN" "http://www.w3.org/Graphics/SVG/1.1/DTD/svg11.dtd" >
<svg xmlns="http://www.w3.org/2000/svg">
<metadata></metadata>
<defs>
<font id="organicamedium" horiz-adv-x="1304" >
<font-face units-per-em="2048" ascent="1536" descent="-512" />
<missing-glyph horiz-adv-x="614" />
<glyph horiz-adv-x="0" />
<glyph horiz-adv-x="0" />
<glyph horiz-adv-x="682" />
<glyph unicode="&#xd;" horiz-adv-x="0" />
<glyph unicode=" "  horiz-adv-x="614" />
<glyph unicode="&#x09;" horiz-adv-x="614" />
<glyph unicode="&#xa0;" horiz-adv-x="614" />
<glyph unicode="!" horiz-adv-x="565" d="M186 0v295h193v-295h-193zM186 428v1042h193v-1042h-193z" />
<glyph unicode="&#x22;" horiz-adv-x="821" d="M125 877v557h184v-557h-184zM512 877v557h184v-557h-184z" />
<glyph unicode="#" horiz-adv-x="1476" d="M84 377l49 170h203l96 340h-203l50 172h202l109 375h184l-108 -375h338l108 375h182l-108 -375h207l-50 -172h-206l-97 -340h207l-49 -170h-207l-106 -377h-183l107 377h-338l-106 -377h-185l107 377h-203zM520 547h338l96 340h-338z" />
<glyph unicode="$" horiz-adv-x="1267" d="M104 356l203 39q41 -193 258 -225v487q-52 15 -89 27t-84 32t-79.5 40.5t-66.5 51t-54.5 65.5t-33.5 82t-13 102q0 157 115.5 265t304.5 128v240h142v-240q186 -17 298.5 -116.5t137.5 -254.5l-203 -41q-40 192 -233 224v-449q58 -16 94.5 -27t89.5 -32t87 -41.5 t72.5 -53.5t60.5 -70.5t37 -90t15 -113.5q0 -163 -125.5 -274.5t-330.5 -126.5v-240h-142v240q-198 17 -317.5 117t-143.5 255zM352 1061q0 -80 54.5 -126t158.5 -81v410q-101 -13 -157 -68t-56 -135zM707 168q117 12 182 69.5t65 143.5q0 48 -18.5 86t-54.5 65t-76.5 45.5 t-97.5 36.5v-446z" />
<glyph unicode="%" horiz-adv-x="2007" d="M84 1012q0 190 112 316t283 126q173 0 285.5 -126t112.5 -316t-113 -316.5t-285 -126.5q-171 0 -283 126.5t-112 316.5zM264 1012q0 -125 61 -209t154 -84q95 0 156 84t61 209t-61 209t-156 84q-93 0 -154 -84t-61 -209zM485 0l842 1434h197l-844 -1434h-195zM1130 422 q0 190 112.5 316t285.5 126q171 0 283 -126t112 -316t-112 -316t-283 -126q-173 0 -285.5 126t-112.5 316zM1311 422q0 -125 61 -209t156 -84q93 0 154 84t61 209t-61 209t-154 84q-95 0 -156 -84t-61 -209z" />
<glyph unicode="&#x26;" horiz-adv-x="1468" d="M104 389q0 271 256 399q-135 149 -135 293q0 75 26.5 141.5t78 118.5t135.5 82.5t190 30.5q206 0 321.5 -120t115.5 -308h-199q0 110 -61 182t-179 72q-117 0 -174 -60t-57 -141q0 -113 147 -237l480 -402q65 120 73 277h199q-11 -223 -117 -402l211 -176l-115 -153 l-213 180q-94 -93 -220.5 -139.5t-268.5 -46.5q-121 0 -217.5 35t-155.5 93t-90 130t-31 151zM303 414q0 -105 78 -181.5t227 -76.5q202 0 334 129l-467 397q-83 -42 -127.5 -112.5t-44.5 -155.5z" />
<glyph unicode="'" horiz-adv-x="434" d="M125 877v557h184v-557h-184z" />
<glyph unicode="(" horiz-adv-x="645" d="M106 717q0 266 86 511.5t222 409.5h198q-136 -164 -221.5 -409.5t-85.5 -511.5q0 -265 85.5 -512t221.5 -410h-198q-136 163 -222 410.5t-86 511.5z" />
<glyph unicode=")" horiz-adv-x="673" d="M33 -205q136 163 221.5 409.5t85.5 512.5q0 265 -85.5 511.5t-221.5 409.5h198q136 -163 222 -410t86 -511q0 -266 -86 -512t-222 -410h-198z" />
<glyph unicode="*" horiz-adv-x="854" d="M84 958l215 119l-215 119l70 119l208 -127l-4 246h138l-4 -246l208 127l70 -119l-217 -119l217 -119l-70 -118l-208 127l4 -246h-138l4 246l-208 -127z" />
<glyph unicode="+" horiz-adv-x="1083" d="M125 627v180h321v321h193v-321h319v-180h-319v-322h-193v322h-321z" />
<glyph unicode="," horiz-adv-x="460" d="M104 -201l41 502h207l-98 -502h-150z" />
<glyph unicode="-" horiz-adv-x="651" d="M84 436v172h483v-172h-483z" />
<glyph unicode="." horiz-adv-x="460" d="M125 0v301h211v-301h-211z" />
<glyph unicode="/" horiz-adv-x="665" d="M-59 -410l591 2253h193l-592 -2253h-192z" />
<glyph unicode="0" horiz-adv-x="1357" d="M104 717q0 208 74 376.5t206 264.5t296 96t295.5 -96t204.5 -264.5t73 -376.5t-73 -376.5t-204.5 -264.5t-295.5 -96t-296 96t-206 264.5t-74 376.5zM311 717q0 -236 104.5 -393.5t264.5 -157.5q105 0 189 72t131 198t47 281t-47 281t-131 198t-189 72 q-160 0 -264.5 -157.5t-104.5 -393.5z" />
<glyph unicode="1" horiz-adv-x="1097" d="M84 0v180h426v1043l-426 -111v180l627 162v-1274h364v-180h-991z" />
<glyph unicode="2" horiz-adv-x="1251" d="M129 0v180l608 561q150 143 150 289q0 106 -71.5 172t-199.5 66q-123 0 -197.5 -74.5t-80.5 -204.5l-207 25q13 205 143 322.5t342 117.5q218 0 348 -114t130 -306q0 -228 -228 -434l-450 -420h710v-180h-997z" />
<glyph unicode="3" horiz-adv-x="1177" d="M63 420l207 24q8 -129 85 -203.5t206 -74.5q144 0 223.5 74t79.5 186q0 119 -82.5 196.5t-236.5 77.5h-105v154l334 399h-645v181h895v-181l-342 -405q173 -20 282 -138t109 -290q0 -196 -139 -318t-373 -122q-220 0 -352 117t-146 323z" />
<glyph unicode="4" horiz-adv-x="1234" d="M23 313v181l735 940l14 -4v4h203v-940h196v-181h-196v-313h-203v313h-749zM244 494h528v675z" />
<glyph unicode="5" horiz-adv-x="1200" d="M104 395l207 23q9 -114 87 -183t204 -69q134 0 220.5 83t86.5 210q0 131 -81.5 212t-215.5 81q-89 0 -159 -38t-113 -102l-190 27l98 795h758v-181h-596l-56 -430q132 99 297 99q205 0 335 -127t130 -336t-145.5 -344t-368.5 -135q-216 0 -347.5 112t-150.5 303z" />
<glyph unicode="6" horiz-adv-x="1185" d="M84 459q0 134 96 295l410 680h231l-323 -537q92 23 178.5 19t164 -41.5t135.5 -94.5t92 -141t34 -180q0 -205 -143.5 -342t-364.5 -137q-223 0 -366.5 136t-143.5 343zM291 459q0 -127 86 -210t217 -83q129 0 215 83t86 210q0 126 -86 209.5t-215 83.5 q-130 0 -216.5 -83.5t-86.5 -209.5z" />
<glyph unicode="7" horiz-adv-x="1095" d="M43 1253v181h989v-158l-594 -1276h-221l592 1253h-766z" />
<glyph unicode="8" horiz-adv-x="1269" d="M104 393q0 116 68 207t190 141q-93 51 -144.5 133.5t-51.5 182.5q0 168 134.5 282.5t334.5 114.5t335.5 -114.5t135.5 -282.5q0 -100 -53 -182t-148 -134q123 -50 191.5 -141t68.5 -207q0 -180 -146 -296.5t-384 -116.5t-384.5 116.5t-146.5 296.5zM307 403 q0 -105 91.5 -173t236.5 -68t236.5 68t91.5 173q0 106 -93 177t-235 71t-235 -71t-93 -177zM369 1044q0 -97 75.5 -161t190.5 -64t191.5 64t76.5 161t-76.5 162.5t-191.5 65.5t-190.5 -65.5t-75.5 -162.5z" />
<glyph unicode="9" horiz-adv-x="1185" d="M84 975q0 206 143.5 342.5t366.5 136.5q222 0 365 -135.5t143 -343.5q0 -134 -96 -295l-410 -680h-231l323 539q-149 -43 -288.5 -0.5t-227.5 160t-88 276.5zM291 975q0 -126 86.5 -209.5t216.5 -83.5q129 0 215 83.5t86 209.5q0 127 -86 210t-215 83q-131 0 -217 -83 t-86 -210z" />
<glyph unicode=":" horiz-adv-x="460" d="M125 0v301h211v-301h-211zM125 741v301h211v-301h-211z" />
<glyph unicode=";" horiz-adv-x="460" d="M104 -201l41 502h207l-98 -502h-150zM125 741v301h211v-301h-211z" />
<glyph unicode="&#x3c;" horiz-adv-x="1083" d="M125 627v180l833 358v-192l-593 -254l593 -252v-199z" />
<glyph unicode="=" horiz-adv-x="1083" d="M125 393v182h833v-182h-833zM125 858v182h833v-182h-833z" />
<glyph unicode="&#x3e;" horiz-adv-x="1083" d="M125 268v195l594 252l-594 252v198l833 -358v-180z" />
<glyph unicode="?" horiz-adv-x="1081" d="M43 1014q13 204 148 322t348 118q216 0 342.5 -107t126.5 -274q0 -76 -21.5 -136t-56 -100t-76.5 -74t-83.5 -66.5t-76 -69t-55.5 -89.5t-21 -120h-192q0 87 20.5 156.5t54 114t73.5 81t79.5 66t73 59t54 70t20.5 90.5q0 90 -68 151.5t-194 61.5q-124 0 -203.5 -75.5 t-85.5 -203.5zM426 0v283h192v-283h-192z" />
<glyph unicode="@" horiz-adv-x="2070" d="M63 408q0 216 86 410t231.5 333.5t344.5 221t418 81.5q246 0 439.5 -110t299 -301t105.5 -429q0 -136 -38 -250t-101 -188t-143 -115t-167 -41q-84 0 -147.5 44t-81.5 133q-73 -85 -179 -135t-221 -50q-174 0 -287.5 116.5t-113.5 291.5q0 154 74.5 285t200.5 206.5 t272 75.5q112 0 196 -49t129 -137l31 168h174l-112 -639q-10 -66 11.5 -109t84.5 -43q46 0 91 27.5t83.5 79.5t62 138t23.5 191q0 147 -50.5 275t-139.5 220t-218 145t-280 53q-186 0 -356 -70t-293.5 -189t-197 -286t-73.5 -352q0 -146 50.5 -273.5t139.5 -219.5t218 -145 t280 -53q281 0 518 152l80 -127q-271 -174 -598 -174q-185 0 -343.5 64t-268.5 175.5t-172 266.5t-62 332zM690 449q0 -121 72.5 -198t191.5 -77q154 0 267.5 111t113.5 266q0 120 -73.5 197t-192.5 77q-152 0 -265.5 -110.5t-113.5 -265.5z" />
<glyph unicode="A" horiz-adv-x="1482" d="M23 0l608 1434h221l608 -1434h-217l-151 358h-711l-152 -358h-206zM457 541h557l-279 659z" />
<glyph unicode="B" horiz-adv-x="1257" d="M125 0v1434h524q186 0 304 -111t118 -279q0 -97 -43 -175.5t-119 -131.5q114 -41 179 -134t65 -214q0 -165 -116 -277t-292 -112h-620zM322 176h389q105 0 172 66t67 164q0 96 -67 160.5t-172 64.5h-389v-455zM322 803h319q105 0 172.5 65.5t67.5 161.5q0 98 -67.5 162.5 t-172.5 64.5h-319v-454z" />
<glyph unicode="C" horiz-adv-x="1574" d="M84 717q0 205 98 374t269.5 266t379.5 97q229 0 404 -119t256 -295l-186 -75q-64 135 -190 219t-284 84q-150 0 -274 -72.5t-195 -199t-71 -279.5t71 -279.5t195 -199t274 -72.5q158 0 284 84t190 219l186 -76q-80 -176 -255.5 -294.5t-404.5 -118.5q-208 0 -379.5 97 t-269.5 266t-98 374z" />
<glyph unicode="D" horiz-adv-x="1462" d="M125 0v1434h524q206 0 373 -94t261.5 -258.5t94.5 -364.5t-94.5 -364.5t-261.5 -258.5t-373 -94h-524zM328 180h309q231 0 381.5 153t150.5 384t-150.5 383.5t-381.5 152.5h-309v-1073z" />
<glyph unicode="E" horiz-adv-x="1122" d="M125 0v1434h905v-181h-702v-446h682v-180h-682v-447h702v-180h-905z" />
<glyph unicode="F" horiz-adv-x="1040" d="M125 0v1434h864v-181h-661v-465h641v-180h-641v-608h-203z" />
<glyph unicode="G" horiz-adv-x="1660" d="M84 717q0 205 98 374t269.5 266t379.5 97q229 0 404 -119t256 -295l-186 -75q-64 135 -190 219t-284 84q-150 0 -274 -72.5t-195 -199t-71 -279.5t71 -279.5t195 -199t274 -72.5q102 0 192.5 35.5t155 95t106 139.5t50.5 168h-620v180h841q3 -36 3 -71q0 -134 -43 -255 q-54 -152 -155.5 -255.5t-239.5 -163t-290 -59.5q-208 0 -379.5 97t-269.5 266t-98 374z" />
<glyph unicode="H" horiz-adv-x="1482" d="M125 0v1434h203v-627h827v627h203v-1434h-203v627h-827v-627h-203z" />
<glyph unicode="I" horiz-adv-x="452" d="M125 0v1434h203v-1434h-203z" />
<glyph unicode="J" horiz-adv-x="1071" d="M45 387l203 29q6 -124 78 -187t180 -63q121 0 190.5 80t69.5 209v979h201v-979q0 -214 -129.5 -344.5t-335.5 -130.5q-190 0 -316 107.5t-141 299.5z" />
<glyph unicode="K" horiz-adv-x="1323" d="M125 0v1434h203v-699l647 699h254l-545 -588l629 -846h-246l-520 690l-219 -233v-457h-203z" />
<glyph unicode="L" horiz-adv-x="1071" d="M125 0v1434h203v-1254h702v-180h-905z" />
<glyph unicode="M" horiz-adv-x="1761" d="M125 0v1434h274l486 -1174l485 1174h266v-1434h-198v1106l-465 -1106h-185l-466 1104v-1104h-197z" />
<glyph unicode="N" horiz-adv-x="1482" d="M125 0v1434h197l833 -1098v1098h203v-1434h-199l-831 1098v-1098h-203z" />
<glyph unicode="O" horiz-adv-x="1660" d="M84 717q0 205 98 374t269.5 266t379.5 97q155 0 293.5 -57t237.5 -155t157 -235t58 -290t-58 -290t-157 -235t-237.5 -155t-293.5 -57q-208 0 -379.5 97t-269.5 266t-98 374zM291 717q0 -153 71 -279.5t195 -199t274 -72.5q227 0 383 159t156 392t-156 392t-383 159 q-150 0 -274 -72.5t-195 -199t-71 -279.5z" />
<glyph unicode="P" horiz-adv-x="1198" d="M125 0v1434h561q213 0 347 -127t134 -318t-134 -315.5t-347 -124.5h-358v-549h-203zM328 729h358q120 0 196 75t76 187q0 114 -76 188t-196 74h-358v-524z" />
<glyph unicode="Q" horiz-adv-x="1660" d="M84 717q0 205 98 374t269.5 266t379.5 97q155 0 293.5 -57t237.5 -155t157 -235t58 -290q0 -156 -58 -292.5t-163 -238.5l182 -215l-147 -125l-191 226q-170 -92 -369 -92q-208 0 -379.5 97t-269.5 266t-98 374zM291 717q0 -153 71 -279.5t195 -199t274 -72.5 q130 0 244 57l-207 246l148 123l213 -254q141 160 141 379q0 233 -156 392t-383 159q-150 0 -274 -72.5t-195 -199t-71 -279.5z" />
<glyph unicode="R" horiz-adv-x="1251" d="M125 0v1434h563q202 0 330.5 -121t128.5 -303q0 -159 -101 -274.5t-266 -143.5l408 -592h-244l-401 586h-215v-586h-203zM328 770h360q109 0 179.5 69.5t70.5 172.5q0 104 -70.5 172.5t-179.5 68.5h-360v-483z" />
<glyph unicode="S" horiz-adv-x="1208" d="M104 356l203 39q21 -106 99 -167.5t208 -61.5q128 0 204.5 59.5t76.5 155.5q0 53 -21 94t-57 67t-84.5 48.5t-102.5 37.5t-111 34.5t-111 39t-102.5 51t-84.5 71t-57 99t-21 134.5q0 172 132 284.5t333 112.5q199 0 324.5 -103t152.5 -272l-204 -41q-19 108 -89.5 169 t-187.5 61q-114 0 -183 -57.5t-69 -149.5q0 -54 25.5 -94.5t69 -65.5t100 -45t119 -38t125 -38.5t119 -53t100 -75.5t69 -111t25.5 -155q0 -175 -140 -290t-356 -115q-210 0 -344.5 104.5t-159.5 271.5z" />
<glyph unicode="T" horiz-adv-x="1183" d="M20 1253v181h1143v-181h-471v-1253h-200v1253h-472z" />
<glyph unicode="U" horiz-adv-x="1400" d="M104 541v893h203v-893q0 -165 109.5 -270t283.5 -105q176 0 285 105t109 270v893h202v-893q0 -246 -167.5 -403.5t-428.5 -157.5t-428.5 157.5t-167.5 403.5z" />
<glyph unicode="V" horiz-adv-x="1421" d="M23 1434h217l475 -1196l475 1196h209l-578 -1434h-221z" />
<glyph unicode="W" horiz-adv-x="2183" d="M76 1434h219l348 -1162l340 1162h227l342 -1162l346 1162h211l-442 -1434h-231l-344 1104l-344 -1104h-232z" />
<glyph unicode="X" horiz-adv-x="1343" d="M23 0l528 715l-528 719h245l406 -555l407 555h240l-528 -715l528 -719h-246l-405 555l-408 -555h-239z" />
<glyph unicode="Y" horiz-adv-x="1292" d="M2 1434h238l413 -754l412 754h225l-542 -955v-479h-203v479z" />
<glyph unicode="Z" horiz-adv-x="1214" d="M102 0v180l762 1073h-762v181h1010v-181l-764 -1073h764v-180h-1010z" />
<glyph unicode="[" horiz-adv-x="620" d="M125 -205v1843h463v-182h-260v-1479h260v-182h-463z" />
<glyph unicode="\" horiz-adv-x="665" d="M-59 1843h192l592 -2253h-193z" />
<glyph unicode="]" horiz-adv-x="620" d="M33 -23h262v1479h-262v182h463v-1843h-463v182z" />
<glyph unicode="^" horiz-adv-x="1247" d="M84 678l430 1042h219l430 -1042h-207l-338 840l-337 -840h-197z" />
<glyph unicode="_" horiz-adv-x="1042" d="M20 -20h1002v-173h-1002v173z" />
<glyph unicode="`" horiz-adv-x="643" d="M102 1509h217l222 -327h-197z" />
<glyph unicode="a" d="M84 522q0 230 148.5 385.5t369.5 155.5q119 0 218.5 -49t166.5 -137v165h193v-1042h-193v164q-67 -88 -166 -136t-219 -48q-221 0 -369.5 155t-148.5 387zM283 522q0 -157 100.5 -260.5t251.5 -103.5t251.5 103.5t100.5 260.5q0 155 -100.5 259t-251.5 104t-251.5 -104 t-100.5 -259z" />
<glyph unicode="b" d="M125 0v1516h192v-639q67 88 166.5 137t218.5 49q221 0 370 -155.5t149 -385.5q0 -232 -149 -387t-370 -155q-120 0 -219 48t-166 136v-164h-192zM317 522q0 -156 101 -260t252 -104t252.5 104t101.5 260q0 155 -101.5 259t-252.5 104t-252 -104t-101 -259z" />
<glyph unicode="c" horiz-adv-x="1206" d="M84 522q0 151 72 275.5t198.5 195t280.5 70.5q166 0 293 -81.5t194 -217.5l-168 -82q-43 94 -127.5 148.5t-191.5 54.5q-151 0 -251.5 -104t-100.5 -259q0 -157 100.5 -260.5t251.5 -103.5q107 0 191.5 54t127.5 148l168 -81q-67 -136 -194 -217.5t-293 -81.5 q-154 0 -280.5 70.5t-198.5 195t-72 276.5z" />
<glyph unicode="d" d="M84 522q0 230 148.5 385.5t369.5 155.5q119 0 218.5 -49t166.5 -137v639h193v-1516h-193v164q-67 -88 -166 -136t-219 -48q-221 0 -369.5 155t-148.5 387zM283 522q0 -157 100.5 -260.5t251.5 -103.5t251.5 103.5t100.5 260.5q0 155 -100.5 259t-251.5 104t-251.5 -104 t-100.5 -259z" />
<glyph unicode="e" horiz-adv-x="1251" d="M84 522q0 230 155.5 385.5t385.5 155.5q163 0 291 -80q128 -79 194 -219q52 -111 53 -239q0 -33 -4 -68h-876q16 -132 113 -221t243 -89q109 0 195.5 53.5t132.5 145.5l161 -70q-66 -135 -196 -215.5t-297 -80.5q-154 0 -280.5 70.5t-198.5 195t-72 276.5zM287 610h676 q-22 125 -115 205t-223 80q-129 0 -222.5 -81t-115.5 -204z" />
<glyph unicode="f" horiz-adv-x="882" d="M43 870v172h219v103q0 193 89.5 292t240.5 99q129 0 268 -68l-61 -157q-107 47 -174 47q-80 0 -125 -51.5t-45 -153.5v-111h350v-172h-350v-870h-193v870h-219z" />
<glyph unicode="g" d="M84 530q0 227 148.5 380t369.5 153q120 0 219 -48t166 -134v161h193v-929q0 -152 -72 -276.5t-198.5 -195.5t-280.5 -71q-165 0 -294.5 81.5t-195.5 215.5l174 86q44 -96 126.5 -151.5t189.5 -55.5q152 0 255 105t103 262v67q-67 -86 -166 -134t-219 -48 q-221 0 -369.5 152.5t-148.5 379.5zM283 530q0 -152 100.5 -253t251.5 -101t251.5 101t100.5 253t-100.5 253.5t-251.5 101.5t-251.5 -101.5t-100.5 -253.5z" />
<glyph unicode="h" horiz-adv-x="1218" d="M125 0v1516h192v-629q58 83 148 129.5t201 46.5q191 0 314.5 -125.5t123.5 -316.5v-621h-193v592q0 128 -84 211.5t-213 83.5q-128 0 -212.5 -84t-84.5 -211v-592h-192z" />
<glyph unicode="i" horiz-adv-x="442" d="M125 0v1042h192v-1042h-192zM125 1200v293h192v-293h-192z" />
<glyph unicode="j" horiz-adv-x="483" d="M-20 -229q20 -2 37 -2q75 0 108 39q41 47 41 151v1083h192v-1101q0 -198 -85 -282q-72 -71 -233 -71q-28 0 -60 2v181zM166 1200v293h192v-293h-192z" />
<glyph unicode="k" horiz-adv-x="1112" d="M125 0v1516h192v-981l463 507h246l-403 -434l487 -608h-246l-370 465l-177 -184v-281h-192z" />
<glyph unicode="l" horiz-adv-x="442" d="M125 0v1516h192v-1516h-192z" />
<glyph unicode="m" horiz-adv-x="1878" d="M125 0v1042h192v-137q54 73 135.5 115.5t176.5 42.5q116 0 206.5 -57.5t141.5 -155.5q55 99 146 156t210 57q187 0 308.5 -131t121.5 -332v-600h-192v602q0 123 -75 204t-189 81t-190.5 -81t-76.5 -204v-602h-192v602q0 123 -75 204t-189 81t-190.5 -81t-76.5 -204v-602 h-192z" />
<glyph unicode="n" horiz-adv-x="1218" d="M125 0v1042h192v-155q58 83 148 129.5t201 46.5q191 0 314.5 -125.5t123.5 -316.5v-621h-193v592q0 128 -84 211.5t-213 83.5q-128 0 -212.5 -84t-84.5 -211v-592h-192z" />
<glyph unicode="o" horiz-adv-x="1269" d="M84 522q0 151 72 275.5t198.5 195t280.5 70.5t280.5 -70.5t198.5 -195t72 -275.5q0 -152 -72 -276.5t-198.5 -195t-280.5 -70.5t-280.5 70.5t-198.5 195t-72 276.5zM283 522q0 -157 100.5 -260.5t251.5 -103.5t251.5 103.5t100.5 260.5q0 155 -100.5 259t-251.5 104 t-251.5 -104t-100.5 -259z" />
<glyph unicode="p" d="M125 -410v1452h192v-165q67 88 166.5 137t218.5 49q221 0 370 -155.5t149 -385.5q0 -232 -149 -387t-370 -155q-120 0 -219 48t-166 136v-574h-192zM317 522q0 -156 101 -260t252 -104t252.5 104t101.5 260q0 155 -101.5 259t-252.5 104t-252 -104t-101 -259z" />
<glyph unicode="q" d="M84 522q0 230 148.5 385.5t369.5 155.5q119 0 218.5 -49t166.5 -137v165h193v-1452h-193v574q-67 -88 -166 -136t-219 -48q-221 0 -369.5 155t-148.5 387zM283 522q0 -157 100.5 -260.5t251.5 -103.5t251.5 103.5t100.5 260.5q0 155 -100.5 259t-251.5 104t-251.5 -104 t-100.5 -259z" />
<glyph unicode="r" horiz-adv-x="772" d="M125 0v1042h192v-157q69 101 181 148q71 30 154 30q47 0 98 -10l-25 -185q-57 14 -108 14q-101 0 -181 -54q-120 -81 -119 -236v-592h-192z" />
<glyph unicode="s" horiz-adv-x="1071" d="M104 262l191 39q11 -74 74 -117t166 -43q107 0 172 40t65 102q0 50 -35 84t-90.5 52.5t-123 33.5t-134.5 35.5t-122.5 50t-90.5 86t-35 135.5q0 131 111.5 217t282.5 86q174 0 281.5 -77t133.5 -206l-192 -39q-15 76 -73 118t-155 42q-86 0 -141 -37t-55 -98 q0 -46 35 -76.5t90.5 -47.5t123 -32t135.5 -37t123.5 -54t90.5 -91t35 -141q0 -132 -123 -219.5t-309 -87.5q-179 0 -295.5 79t-135.5 203z" />
<glyph unicode="t" horiz-adv-x="937" d="M43 870v172h227v261l193 59v-320h381v-172h-381v-508q0 -102 45 -153t125 -51t198 59l64 -160q-154 -77 -293 -77q-151 0 -241.5 99t-90.5 292v499h-227z" />
<glyph unicode="u" horiz-adv-x="1167" d="M115 430v612h192v-612q0 -118 78.5 -195t198.5 -77q119 0 197.5 77t78.5 195v612h193v-612q0 -196 -133.5 -323t-335.5 -127q-203 0 -336 127t-133 323z" />
<glyph unicode="v" horiz-adv-x="1083" d="M2 1042h209l336 -839l340 839h194l-430 -1042h-219z" />
<glyph unicode="w" horiz-adv-x="1732" d="M23 1042h202l273 -827l276 827h197l276 -827l271 827h192l-360 -1042h-213l-271 754l-270 -754h-213z" />
<glyph unicode="x" horiz-adv-x="1079" d="M33 0l391 518l-391 524h237l273 -370l278 370h228l-394 -518l394 -524h-240l-272 373l-279 -373h-225z" />
<glyph unicode="y" horiz-adv-x="1083" d="M2 1042h209l336 -839l338 839h196l-604 -1452h-194l161 385z" />
<glyph unicode="z" horiz-adv-x="1073" d="M102 0v172l627 698h-627v172h869v-172l-629 -698h629v-172h-869z" />
<glyph unicode="{" horiz-adv-x="696" d="M23 627v180q125 0 166.5 48t41.5 179v180q0 201 117 312.5t316 111.5v-180q-105 0 -167.5 -70.5t-62.5 -191.5v-168q0 -125 -40.5 -202t-141.5 -109q94 -29 138 -105.5t44 -205.5v-168q0 -121 62.5 -192t167.5 -71v-180q-199 0 -316 111.5t-117 312.5v180 q0 131 -41.5 179.5t-166.5 48.5z" />
<glyph unicode="|" horiz-adv-x="434" d="M125 -410v2253h184v-2253h-184z" />
<glyph unicode="}" horiz-adv-x="696" d="M33 -25q106 0 168.5 71t62.5 192v168q0 125 40 202t140 109q-94 29 -137 105t-43 206v168q0 121 -62.5 191.5t-168.5 70.5v180q199 0 315.5 -111.5t116.5 -312.5v-180q0 -131 42 -179t167 -48v-180q-125 0 -167 -48.5t-42 -179.5v-180q0 -201 -116.5 -312.5 t-315.5 -111.5v180z" />
<glyph unicode="~" horiz-adv-x="1091" d="M84 655q33 106 110 170t183 64q53 0 95.5 -16.5t70.5 -40t52 -47t52.5 -40t59.5 -16.5q99 0 145 123l156 -74q-33 -106 -110 -169.5t-183 -63.5q-53 0 -95.5 16.5t-70.5 40t-52 47t-52.5 40t-59.5 16.5q-99 0 -145 -123z" />
<glyph unicode="&#xa2;" horiz-adv-x="1206" d="M84 522q0 211 134.5 360.5t342.5 174.5v225h141v-223q143 -17 251.5 -95t168.5 -200l-168 -82q-37 78 -103 130t-149 67v-715q84 15 149.5 66t102.5 130l168 -81q-60 -123 -168.5 -201.5t-251.5 -93.5v-224h-141v226q-208 25 -342.5 174.5t-134.5 361.5zM283 522 q0 -136 77 -234.5t201 -123.5v713q-124 -25 -201 -123t-77 -232z" />
<glyph unicode="&#xa3;" horiz-adv-x="1306" d="M125 0v180h160v469h-160v135h160v220q0 196 132.5 323t336.5 127q202 0 335.5 -127t133.5 -323h-203q0 114 -76 189t-190 75q-116 0 -192.5 -75t-76.5 -189v-220h445v-135h-445v-469h650v-180h-1010z" />
<glyph unicode="&#xa5;" horiz-adv-x="1314" d="M14 1434h236l414 -754l411 754h228l-371 -650h266v-135h-344l-96 -170v-479h-201v479l-96 170h-342v135h264z" />
<glyph unicode="&#xa8;" horiz-adv-x="862" d="M102 1200v293h185v-293h-185zM549 1200v293h184v-293h-184z" />
<glyph unicode="&#xa9;" horiz-adv-x="1660" d="M84 717q0 205 98 374t269.5 266t379.5 97q155 0 293.5 -57t237.5 -155t157 -235t58 -290t-58 -290t-157 -235t-237.5 -155t-293.5 -57q-208 0 -379.5 97t-269.5 266t-98 374zM242 717q0 -165 77.5 -301.5t212.5 -214.5t299 -78t299 78t212 214.5t77 301.5 q0 124 -45.5 234.5t-123.5 190t-187.5 125.5t-231.5 46q-164 0 -299 -78.5t-212.5 -215.5t-77.5 -302zM424 717q0 173 118.5 290t295.5 117q125 0 221 -61.5t145 -163.5l-133 -65q-33 68 -94.5 107.5t-138.5 39.5q-109 0 -182.5 -75t-73.5 -189t73.5 -189t182.5 -75 q77 0 138.5 39.5t94.5 107.5l133 -65q-49 -103 -145.5 -164.5t-220.5 -61.5q-177 0 -295.5 117t-118.5 291z" />
<glyph unicode="&#xab;" horiz-adv-x="1101" d="M84 430v182l483 320v-201l-319 -207l319 -205v-208zM535 430v182l483 320v-201l-320 -207l320 -205v-208z" />
<glyph unicode="&#xad;" horiz-adv-x="651" d="M84 436v172h483v-172h-483z" />
<glyph unicode="&#xae;" horiz-adv-x="829" d="M84 1128q0 138 95.5 232t236.5 94q139 0 234 -94t95 -232t-94.5 -231.5t-234.5 -93.5q-141 0 -236.5 93.5t-95.5 231.5zM162 1128q0 -109 73.5 -182.5t180.5 -73.5t179.5 73.5t72.5 182.5t-72.5 182.5t-179.5 73.5t-180.5 -73.5t-73.5 -182.5zM289 958v340h155 q52 0 86.5 -30t34.5 -80q0 -39 -23 -67.5t-59 -39.5l82 -123h-88l-80 119h-32v-119h-76zM365 1141h69q55 0 55 49q0 47 -55 47h-69v-96z" />
<glyph unicode="&#xb4;" horiz-adv-x="643" d="M102 1182l224 327h215l-240 -327h-199z" />
<glyph unicode="&#xb8;" horiz-adv-x="612" d="M102 -414l19 158q33 -8 72 -8q62 0 96.5 29t34.5 75q0 41 -27 84t-76 76h201q88 -91 88 -201q0 -99 -77 -164t-206 -65q-65 0 -125 16z" />
<glyph unicode="&#xbb;" horiz-adv-x="1101" d="M84 111v200l319 207l-319 207v207l483 -320v-182zM535 111v200l319 207l-319 207v207l483 -320v-182z" />
<glyph unicode="&#xc1;" horiz-adv-x="1482" d="M23 0l608 1434h221l608 -1434h-217l-151 358h-711l-152 -358h-206zM457 541h557l-279 659zM551 1532l303 311h240l-322 -311h-221z" />
<glyph unicode="&#xc4;" horiz-adv-x="1482" d="M23 0l608 1434h221l608 -1434h-217l-151 358h-711l-152 -358h-206zM416 1542v295h184v-295h-184zM457 541h557l-279 659zM883 1542v295h184v-295h-184z" />
<glyph unicode="&#xc9;" horiz-adv-x="1122" d="M125 0v1434h905v-181h-702v-446h682v-180h-682v-447h702v-180h-905zM371 1532l303 311h239l-321 -311h-221z" />
<glyph unicode="&#xcd;" horiz-adv-x="452" d="M90 1532l303 311h240l-322 -311h-221zM125 0v1434h203v-1434h-203z" />
<glyph unicode="&#xd3;" horiz-adv-x="1660" d="M84 717q0 205 98 374t269.5 266t379.5 97q155 0 293.5 -57t237.5 -155t157 -235t58 -290t-58 -290t-157 -235t-237.5 -155t-293.5 -57q-208 0 -379.5 97t-269.5 266t-98 374zM291 717q0 -153 71 -279.5t195 -199t274 -72.5q227 0 383 159t156 392t-156 392t-383 159 q-150 0 -274 -72.5t-195 -199t-71 -279.5zM641 1532l303 311h240l-322 -311h-221z" />
<glyph unicode="&#xd6;" horiz-adv-x="1660" d="M84 717q0 205 98 374t269.5 266t379.5 97q155 0 293.5 -57t237.5 -155t157 -235t58 -290t-58 -290t-157 -235t-237.5 -155t-293.5 -57q-208 0 -379.5 97t-269.5 266t-98 374zM291 717q0 -153 71 -279.5t195 -199t274 -72.5q227 0 383 159t156 392t-156 392t-383 159 q-150 0 -274 -72.5t-195 -199t-71 -279.5zM504 1542v295h184v-295h-184zM971 1542v295h184v-295h-184z" />
<glyph unicode="&#xda;" horiz-adv-x="1400" d="M104 541v893h203v-893q0 -165 109.5 -270t283.5 -105q176 0 285 105t109 270v893h202v-893q0 -246 -167.5 -403.5t-428.5 -157.5t-428.5 157.5t-167.5 403.5zM510 1532l303 311h240l-322 -311h-221z" />
<glyph unicode="&#xdc;" horiz-adv-x="1400" d="M104 541v893h203v-893q0 -165 109.5 -270t283.5 -105q176 0 285 105t109 270v893h202v-893q0 -246 -167.5 -403.5t-428.5 -157.5t-428.5 157.5t-167.5 403.5zM375 1542v295h184v-295h-184zM842 1542v295h184v-295h-184z" />
<glyph unicode="&#xdd;" horiz-adv-x="1298" d="M2 1434h238l413 -754l412 754h225l-542 -955v-479h-203v479zM459 1532l303 311h239l-321 -311h-221z" />
<glyph unicode="&#xdf;" horiz-adv-x="1249" d="M125 0v1063q0 217 132 345t347 128q200 0 335.5 -118t135.5 -292q0 -104 -52.5 -187.5t-139.5 -135.5q115 -52 188.5 -155t73.5 -232q0 -193 -125.5 -314.5t-325.5 -121.5q-141 0 -258 53l45 170q87 -41 187 -41q129 0 206.5 73t77.5 193q0 115 -89 193.5t-224 78.5h-104 v172h65q118 0 200.5 71.5t82.5 172.5q0 102 -80.5 172t-198.5 70q-124 0 -205.5 -77t-81.5 -216v-1065h-192z" />
<glyph unicode="&#xe1;" d="M84 522q0 230 148.5 385.5t369.5 155.5q119 0 218.5 -49t166.5 -137v165h193v-1042h-193v164q-67 -88 -166 -136t-219 -48q-221 0 -369.5 155t-148.5 387zM283 522q0 -157 100.5 -260.5t251.5 -103.5t251.5 103.5t100.5 260.5q0 155 -100.5 259t-251.5 104t-251.5 -104 t-100.5 -259zM504 1182l223 327h215l-240 -327h-198z" />
<glyph unicode="&#xe4;" d="M84 522q0 230 148.5 385.5t369.5 155.5q119 0 218.5 -49t166.5 -137v165h193v-1042h-193v164q-67 -88 -166 -136t-219 -48q-221 0 -369.5 155t-148.5 387zM283 522q0 -157 100.5 -260.5t251.5 -103.5t251.5 103.5t100.5 260.5q0 155 -100.5 259t-251.5 104t-251.5 -104 t-100.5 -259zM326 1200v293h184v-293h-184zM772 1200v293h184v-293h-184z" />
<glyph unicode="&#xe9;" horiz-adv-x="1251" d="M84 522q0 230 155.5 385.5t385.5 155.5q163 0 291.5 -80t194 -219.5t48.5 -306.5h-876q16 -132 113 -221t243 -89q109 0 195.5 53.5t132.5 145.5l161 -70q-66 -135 -196 -215.5t-297 -80.5q-154 0 -280.5 70.5t-198.5 195t-72 276.5zM287 610h676q-22 125 -115 205 t-223 80q-129 0 -222.5 -81t-115.5 -204zM487 1182l224 327h215l-240 -327h-199z" />
<glyph unicode="&#xed;" horiz-adv-x="442" d="M84 1182l223 327h215l-239 -327h-199zM125 0v1042h192v-1042h-192z" />
<glyph unicode="&#xf3;" horiz-adv-x="1269" d="M84 522q0 151 72 275.5t198.5 195t280.5 70.5t280.5 -70.5t198.5 -195t72 -275.5q0 -152 -72 -276.5t-198.5 -195t-280.5 -70.5t-280.5 70.5t-198.5 195t-72 276.5zM283 522q0 -157 100.5 -260.5t251.5 -103.5t251.5 103.5t100.5 260.5q0 155 -100.5 259t-251.5 104 t-251.5 -104t-100.5 -259zM498 1182l223 327h215l-240 -327h-198z" />
<glyph unicode="&#xf6;" horiz-adv-x="1269" d="M84 522q0 151 72 275.5t198.5 195t280.5 70.5t280.5 -70.5t198.5 -195t72 -275.5q0 -152 -72 -276.5t-198.5 -195t-280.5 -70.5t-280.5 70.5t-198.5 195t-72 276.5zM283 522q0 -157 100.5 -260.5t251.5 -103.5t251.5 103.5t100.5 260.5q0 155 -100.5 259t-251.5 104 t-251.5 -104t-100.5 -259zM319 1200v293h185v-293h-185zM766 1200v293h184v-293h-184z" />
<glyph unicode="&#xfa;" horiz-adv-x="1167" d="M115 430v612h192v-612q0 -118 78.5 -195t198.5 -77q119 0 197.5 77t78.5 195v612h193v-612q0 -196 -133.5 -323t-335.5 -127q-203 0 -336 127t-133 323zM446 1182l224 327h215l-240 -327h-199z" />
<glyph unicode="&#xfc;" horiz-adv-x="1167" d="M115 430v612h192v-612q0 -118 78.5 -195t198.5 -77q119 0 197.5 77t78.5 195v612h193v-612q0 -196 -133.5 -323t-335.5 -127q-203 0 -336 127t-133 323zM268 1200v293h185v-293h-185zM715 1200v293h184v-293h-184z" />
<glyph unicode="&#xfd;" horiz-adv-x="1083" d="M2 1042h209l336 -839l338 839h196l-604 -1452h-194l161 385zM403 1182l224 327h215l-240 -327h-199z" />
<glyph unicode="&#x10c;" horiz-adv-x="1574" d="M84 717q0 205 98 374t269.5 266t379.5 97q229 0 404 -119t256 -295l-186 -75q-64 135 -190 219t-284 84q-150 0 -274 -72.5t-195 -199t-71 -279.5t71 -279.5t195 -199t274 -72.5q158 0 284 84t190 219l186 -76q-80 -176 -255.5 -294.5t-404.5 -118.5q-208 0 -379.5 97 t-269.5 266t-98 374zM424 1843h221l184 -184l183 184h221l-305 -311h-199z" />
<glyph unicode="&#x10d;" horiz-adv-x="1206" d="M84 522q0 151 72 275.5t198.5 195t280.5 70.5q166 0 293 -81.5t194 -217.5l-168 -82q-43 94 -127.5 148.5t-191.5 54.5q-151 0 -251.5 -104t-100.5 -259q0 -157 100.5 -260.5t251.5 -103.5q107 0 191.5 54t127.5 148l168 -81q-67 -136 -194 -217.5t-293 -81.5 q-154 0 -280.5 70.5t-198.5 195t-72 276.5zM293 1509h188l152 -204l153 204h189l-232 -327h-219z" />
<glyph unicode="&#x10e;" horiz-adv-x="1462" d="M125 0v1434h524q206 0 373 -94t261.5 -258.5t94.5 -364.5t-94.5 -364.5t-261.5 -258.5t-373 -94h-524zM221 1843h221l185 -184l182 184h221l-305 -311h-199zM328 180h309q231 0 381.5 153t150.5 384t-150.5 383.5t-381.5 152.5h-309v-1073z" />
<glyph unicode="&#x10f;" horiz-adv-x="1531" d="M84 522q0 230 148.5 385.5t369.5 155.5q119 0 218.5 -49t166.5 -137v639h193v-1516h-193v164q-67 -88 -166 -136t-219 -48q-221 0 -369.5 155t-148.5 387zM283 522q0 -157 100.5 -260.5t251.5 -103.5t251.5 103.5t100.5 260.5q0 155 -100.5 259t-251.5 104t-251.5 -104 t-100.5 -259zM1284 1178l70 389h178l-96 -389h-152z" />
<glyph unicode="&#x11a;" horiz-adv-x="1122" d="M125 0v1434h905v-181h-702v-446h682v-180h-682v-447h702v-180h-905zM156 1843h221l184 -184l182 184h222l-306 -311h-198z" />
<glyph unicode="&#x11b;" horiz-adv-x="1251" d="M84 522q0 230 155.5 385.5t385.5 155.5q163 0 291.5 -80t194 -219.5t48.5 -306.5h-876q16 -132 113 -221t243 -89q109 0 195.5 53.5t132.5 145.5l161 -70q-66 -135 -196 -215.5t-297 -80.5q-154 0 -280.5 70.5t-198.5 195t-72 276.5zM283 1509h188l152 -204l153 204h189 l-232 -327h-219zM287 610h676q-22 125 -115 205t-223 80q-129 0 -222.5 -81t-115.5 -204z" />
<glyph unicode="&#x147;" horiz-adv-x="1482" d="M125 0v1434h197l833 -1098v1098h203v-1434h-199l-831 1098v-1098h-203zM336 1843h221l184 -184l183 184h221l-305 -311h-199z" />
<glyph unicode="&#x148;" horiz-adv-x="1218" d="M125 0v1042h192v-155q58 83 148 129.5t201 46.5q191 0 314.5 -125.5t123.5 -316.5v-621h-193v592q0 128 -84 211.5t-213 83.5q-128 0 -212.5 -84t-84.5 -211v-592h-192zM266 1509h189l151 -204l154 204h188l-231 -327h-219z" />
<glyph unicode="&#x158;" horiz-adv-x="1251" d="M125 0v1434h563q202 0 330.5 -121t128.5 -303q0 -159 -101 -274.5t-266 -143.5l408 -592h-244l-401 586h-215v-586h-203zM158 1843h221l184 -184l182 184h222l-305 -311h-199zM328 770h360q109 0 179.5 69.5t70.5 172.5q0 104 -70.5 172.5t-179.5 68.5h-360v-483z" />
<glyph unicode="&#x159;" horiz-adv-x="772" d="M45 1509h188l152 -204l154 204h188l-231 -327h-220zM125 0v1042h192v-157q69 101 181 148t252 20l-25 -185q-169 41 -288.5 -40t-119.5 -236v-592h-192z" />
<glyph unicode="&#x160;" horiz-adv-x="1208" d="M104 356l203 39q21 -106 99 -167.5t208 -61.5q128 0 204.5 59.5t76.5 155.5q0 53 -21 94t-57 67t-84.5 48.5t-102.5 37.5t-111 34.5t-111 39t-102.5 51t-84.5 71t-57 99t-21 134.5q0 172 132 284.5t333 112.5q199 0 324.5 -103t152.5 -272l-204 -41q-19 108 -89.5 169 t-187.5 61q-114 0 -183 -57.5t-69 -149.5q0 -54 25.5 -94.5t69 -65.5t100 -45t119 -38t125 -38.5t119 -53t100 -75.5t69 -111t25.5 -155q0 -175 -140 -290t-356 -115q-210 0 -344.5 104.5t-159.5 271.5zM203 1843h221l184 -184l183 184h221l-305 -311h-199z" />
<glyph unicode="&#x161;" horiz-adv-x="1071" d="M104 262l191 39q11 -74 74 -117t166 -43q107 0 172 40t65 102q0 50 -35 84t-90.5 52.5t-123 33.5t-134.5 35.5t-122.5 50t-90.5 86t-35 135.5q0 131 111.5 217t282.5 86q174 0 281.5 -77t133.5 -206l-192 -39q-15 76 -73 118t-155 42q-86 0 -141 -37t-55 -98 q0 -46 35 -76.5t90.5 -47.5t123 -32t135.5 -37t123.5 -54t90.5 -91t35 -141q0 -132 -123 -219.5t-309 -87.5q-179 0 -295.5 79t-135.5 203zM195 1509h188l152 -204l153 204h189l-232 -327h-219z" />
<glyph unicode="&#x164;" horiz-adv-x="1183" d="M20 1253v181h1143v-181h-471v-1253h-200v1253h-472zM186 1843h222l184 -184l182 184h221l-305 -311h-198z" />
<glyph unicode="&#x165;" horiz-adv-x="937" d="M43 870v172h227v261l193 59v-320h381v-172h-381v-508q0 -102 45 -153t125 -51t198 59l64 -160q-154 -77 -293 -77q-151 0 -241.5 99t-90.5 292v499h-227zM567 1178l70 389h178l-96 -389h-152z" />
<glyph unicode="&#x16e;" horiz-adv-x="1400" d="M104 541v893h203v-893q0 -165 109.5 -270t283.5 -105q176 0 285 105t109 270v893h202v-893q0 -246 -167.5 -403.5t-428.5 -157.5t-428.5 157.5t-167.5 403.5zM459 1704q0 95 69 159t170 64q103 0 171.5 -64t68.5 -159t-68.5 -158t-171.5 -63q-102 0 -170.5 63t-68.5 158z M594 1704q0 -44 30.5 -73t73.5 -29q45 0 75 29t30 73t-30.5 74t-74.5 30q-43 0 -73.5 -30t-30.5 -74z" />
<glyph unicode="&#x16f;" horiz-adv-x="1167" d="M115 430v612h192v-612q0 -118 78.5 -195t198.5 -77q119 0 197.5 77t78.5 195v612h193v-612q0 -196 -133.5 -323t-335.5 -127q-203 0 -336 127t-133 323zM348 1346q0 93 68 156t168 63t167.5 -62.5t67.5 -156.5q0 -92 -67.5 -155t-167.5 -63t-168 63t-68 155zM479 1346 q0 -44 31 -73.5t74 -29.5q44 0 73 29.5t29 73.5t-29 74t-73 30q-43 0 -74 -30t-31 -74z" />
<glyph unicode="&#x17d;" horiz-adv-x="1214" d="M102 0v180l762 1073h-762v181h1010v-181l-764 -1073h764v-180h-1010zM201 1843h221l184 -184l182 184h222l-305 -311h-199z" />
<glyph unicode="&#x17e;" horiz-adv-x="1073" d="M102 0v172l627 698h-627v172h869v-172l-629 -698h629v-172h-869zM195 1509h188l152 -204l153 204h189l-232 -327h-219z" />
<glyph unicode="&#x2c6;" horiz-adv-x="886" d="M102 1182l232 327h219l231 -327h-188l-154 204l-151 -204h-189z" />
<glyph unicode="&#x2da;" horiz-adv-x="675" d="M102 1346q0 93 68 156t168 63t167.5 -62.5t67.5 -156.5q0 -92 -67.5 -155t-167.5 -63t-168 63t-68 155zM233 1346q0 -44 31 -73.5t74 -29.5q44 0 73 29.5t29 73.5t-29 74t-73 30q-43 0 -74 -30t-31 -74z" />
<glyph unicode="&#x2dc;" horiz-adv-x="985" d="M102 1296q27 85 91.5 137t150.5 52q51 0 96 -19t71 -41.5t59 -41.5t63 -19q78 0 110 94l129 -63q-27 -85 -90.5 -137t-148.5 -52q-52 0 -97 19t-71.5 42.5t-59 42.5t-61.5 19q-81 0 -113 -94z" />
<glyph unicode="&#x2000;" horiz-adv-x="963" />
<glyph unicode="&#x2001;" horiz-adv-x="1927" />
<glyph unicode="&#x2002;" horiz-adv-x="963" />
<glyph unicode="&#x2003;" horiz-adv-x="1927" />
<glyph unicode="&#x2004;" horiz-adv-x="642" />
<glyph unicode="&#x2005;" horiz-adv-x="481" />
<glyph unicode="&#x2006;" horiz-adv-x="321" />
<glyph unicode="&#x2007;" horiz-adv-x="321" />
<glyph unicode="&#x2008;" horiz-adv-x="240" />
<glyph unicode="&#x2009;" horiz-adv-x="385" />
<glyph unicode="&#x200a;" horiz-adv-x="107" />
<glyph unicode="&#x2010;" horiz-adv-x="651" d="M84 436v172h483v-172h-483z" />
<glyph unicode="&#x2011;" horiz-adv-x="651" d="M84 436v172h483v-172h-483z" />
<glyph unicode="&#x2012;" horiz-adv-x="651" d="M84 436v172h483v-172h-483z" />
<glyph unicode="&#x2013;" horiz-adv-x="1034" d="M20 436v172h994v-172h-994z" />
<glyph unicode="&#x2014;" horiz-adv-x="2058" d="M20 436v172h2018v-172h-2018z" />
<glyph unicode="&#x2018;" horiz-adv-x="460" d="M109 1133l98 501h149l-41 -501h-206z" />
<glyph unicode="&#x2019;" horiz-adv-x="460" d="M104 1133l41 501h207l-98 -501h-150z" />
<glyph unicode="&#x201a;" horiz-adv-x="460" d="M104 -201l41 502h207l-98 -502h-150z" />
<glyph unicode="&#x201c;" horiz-adv-x="798" d="M109 1133l98 501h149l-41 -501h-206zM446 1133l99 501h149l-41 -501h-207z" />
<glyph unicode="&#x201d;" horiz-adv-x="798" d="M104 1133l41 501h207l-98 -501h-150zM442 1133l41 501h207l-98 -501h-150z" />
<glyph unicode="&#x201e;" horiz-adv-x="798" d="M104 -201l41 502h207l-98 -502h-150zM442 -201l41 502h207l-98 -502h-150z" />
<glyph unicode="&#x2026;" horiz-adv-x="1669" d="M125 0v301h211v-301h-211zM729 0v301h211v-301h-211zM1333 0v301h211v-301h-211z" />
<glyph unicode="&#x202f;" horiz-adv-x="385" />
<glyph unicode="&#x2039;" horiz-adv-x="651" d="M84 430v182l483 320v-201l-319 -207l319 -205v-208z" />
<glyph unicode="&#x203a;" horiz-adv-x="651" d="M84 111v200l319 207l-319 207v207l483 -320v-182z" />
<glyph unicode="&#x205f;" horiz-adv-x="481" />
<glyph unicode="&#x20ac;" horiz-adv-x="1505" d="M84 502v135h115q-2 25 -2 80q0 53 2 80h-115v135h135q37 160 127 278.5t215 181t270 62.5q208 0 364.5 -122t225.5 -328l-202 -43q-50 140 -153.5 223.5t-234.5 83.5q-137 0 -244.5 -90.5t-154.5 -245.5h602l-30 -135h-596q-5 -68 -5 -80q0 -17 5 -80h555l-31 -135h-500 q47 -155 154.5 -245.5t244.5 -90.5q131 0 234.5 83.5t153.5 223.5l202 -43q-69 -205 -226 -327.5t-364 -122.5q-221 0 -388.5 140t-223.5 382h-135z" />
<glyph unicode="&#x2122;" horiz-adv-x="1275" d="M41 1335v99h463v-99h-178v-438h-107v438h-178zM575 897v537h144l147 -387l148 387h139v-537h-106v350l-132 -350h-102l-131 350v-350h-107z" />
<glyph unicode="&#x25fc;" horiz-adv-x="1044" d="M0 0v1044h1044v-1044h-1044z" />
</font>
</defs>
</svg>
